<?xml version="1.0" encoding="utf-8"?>
<svg version="1.0" xmlns="http://www.w3.org/2000/svg" width="430pt" height="430pt" viewBox="0 0 419 422" xmlns:bx="https://boxy-svg.com" preserveAspectRatio="none"><defs><bx:export><bx:file format="svg" units="pt"/></bx:export></defs><g transform="translate(0.000000,430.000000) scale(0.100000,-0.100000)" fill="#000000" stroke="none"><path d="M 1825.01 4276.98 C 1315.01 4219.98 963.975 4041.6 609.975 3682.6 C 486.975 3557.6 276.87 3263.85 215.067 3103.68 C 50.514 2677.22 89.026 2791.34 31.684 2485.26 C 3.137 2332.88 3.789 2074.83 28.789 1921.83 C 130.789 1299.83 397.217 778.834 909.217 441.834 C 1378.22 132.834 1966.22 19.834 2519.22 131.834 C 3265.22 283.834 3832.01 829.281 4074.01 1548.28 C 4470.01 2727.28 3758.38 3904.34 2557.38 4230.34 C 2338.38 4289.34 2037.01 4299.98 1825.01 4276.98 Z M 2304.22 4256.83 C 2995.22 4179.83 3594.22 3763.83 3904.22 3146.83 C 4021.22 2913.83 4093.22 2653.83 4115.22 2387.83 C 4121.22 2318.83 4119.22 2304.83 4108.22 2309.83 C 4100.22 2312.83 4075.22 2320.83 4051.22 2327.83 C 4025.22 2334.83 4001.22 2349.83 3992.22 2363.83 C 3978.22 2383.83 3970.22 2387.83 3944.22 2382.83 C 3915.22 2376.83 3910.22 2380.83 3880.22 2421.83 C 3862.22 2446.83 3846.22 2466.83 3843.22 2466.83 C 3840.22 2466.83 3824.22 2459.83 3807.22 2450.83 C 3789.22 2441.83 3767.22 2437.83 3752.22 2441.83 C 3732.22 2446.83 3717.22 2440.83 3686.22 2415.83 C 3639.22 2377.83 3562.22 2346.83 3515.22 2346.83 C 3497.22 2346.83 3476.22 2339.83 3469.22 2331.83 C 3452.22 2310.83 3432.22 2312.83 3373.22 2342.83 L 3322.22 2368.83 L 3233.22 2317.83 C 3185.22 2289.83 3140.22 2266.83 3133.22 2266.83 C 3127.22 2266.83 3096.22 2291.83 3065.22 2322.83 C 3009.22 2376.83 3008.22 2377.83 2975.22 2365.83 C 2942.22 2353.83 2939.22 2354.83 2882.22 2403.83 C 2790.22 2484.83 2762.22 2517.83 2733.22 2579.83 C 2719.22 2611.83 2688.22 2657.83 2665.22 2680.83 C 2642.22 2703.83 2598.22 2767.83 2569.22 2821.83 C 2485.22 2977.83 2471.22 2998.83 2450.22 2991.83 C 2435.22 2987.83 2422.22 3001.83 2385.22 3061.83 C 2355.22 3108.83 2331.22 3136.83 2320.22 3136.83 C 2297.22 3136.83 2267.22 3102.83 2239.22 3046.83 C 2207.22 2983.83 2160.22 2926.83 2140.22 2926.83 C 2130.22 2926.83 2114.22 2908.83 2101.22 2881.83 C 2089.22 2856.83 2073.22 2836.83 2065.22 2836.83 C 2056.22 2836.83 2038.22 2815.83 2022.22 2789.83 C 1981.22 2717.83 1933.22 2661.83 1894.22 2640.83 C 1873.22 2629.83 1841.22 2595.83 1814.22 2554.83 C 1753.22 2463.83 1556.22 2287.83 1514.22 2286.83 C 1498.22 2286.83 1473.22 2277.83 1459.22 2266.83 C 1431.22 2244.83 1407.22 2241.83 1378.22 2257.83 C 1362.22 2265.83 1360.22 2270.83 1370.22 2282.83 C 1380.22 2294.83 1379.22 2295.83 1365.22 2290.83 C 1356.22 2287.83 1349.22 2288.83 1349.22 2294.83 C 1349.22 2301.83 1339.22 2300.83 1319.22 2293.83 C 1303.22 2287.83 1289.22 2278.83 1289.22 2274.83 C 1289.22 2270.83 1284.22 2266.83 1277.22 2266.83 C 1268.22 2266.83 1268.22 2269.83 1277.22 2278.83 C 1296.22 2297.83 1291.22 2306.83 1262.22 2306.83 L 1234.22 2306.83 L 1264.22 2330.83 C 1290.22 2351.83 1292.22 2355.83 1277.22 2361.83 C 1266.22 2365.83 1245.22 2360.83 1224.22 2347.83 C 1173.22 2318.83 1151.22 2320.83 1186.22 2351.83 L 1214.22 2375.83 L 1181.22 2366.83 C 1150.22 2358.83 1149.22 2358.83 1161.22 2373.83 C 1172.22 2388.83 1172.22 2389.83 1154.22 2382.83 C 1132.22 2374.83 990.217 2346.83 974.217 2346.83 C 969.217 2347.83 976.217 2354.83 992.217 2362.83 C 1007.22 2370.83 1019.22 2381.83 1019.22 2386.83 C 1019.22 2406.83 950.217 2389.83 913.217 2359.83 C 875.217 2330.83 836.217 2306.83 825.217 2306.83 C 807.217 2306.83 835.217 2439.83 866.217 2500.83 C 880.217 2528.83 882.217 2528.83 939.217 2522.83 C 976.217 2518.83 1000.22 2519.83 1004.22 2526.83 C 1007.22 2531.83 1020.22 2536.83 1032.22 2537.83 L 1054.22 2537.83 L 1031.22 2546.83 C 1002.22 2558.83 1002.22 2576.83 1032.22 2576.83 C 1084.22 2576.83 1130.22 2563.83 1125.22 2550.83 C 1122.22 2542.83 1129.22 2536.83 1142.22 2534.83 C 1154.22 2532.83 1163.22 2525.83 1161.22 2518.83 C 1159.22 2508.83 1179.22 2507.83 1246.22 2511.83 C 1294.22 2514.83 1338.22 2521.83 1343.22 2526.83 C 1349.22 2532.83 1350.22 2536.83 1345.22 2536.83 C 1341.22 2536.83 1344.22 2543.83 1353.22 2551.83 C 1361.22 2559.83 1372.22 2566.83 1378.22 2566.83 C 1393.22 2566.83 1392.22 2586.83 1377.22 2586.83 C 1370.22 2586.83 1372.22 2591.83 1382.22 2597.83 C 1396.22 2605.83 1398.22 2611.83 1388.22 2622.83 C 1379.22 2633.83 1380.22 2636.83 1391.22 2636.83 C 1399.22 2636.83 1414.22 2643.83 1425.22 2651.83 C 1443.22 2664.83 1443.22 2665.83 1421.22 2659.83 C 1404.22 2655.83 1400.22 2657.83 1404.22 2669.83 C 1412.22 2690.83 1335.22 2684.83 1310.22 2662.83 C 1287.22 2642.83 1275.22 2641.83 1283.22 2662.83 C 1287.22 2674.83 1285.22 2677.83 1274.22 2672.83 C 1265.22 2669.83 1259.22 2672.83 1259.22 2682.83 C 1259.22 2693.83 1253.22 2695.83 1237.22 2690.83 C 1184.22 2673.83 1145.22 2668.83 1113.22 2673.83 C 1094.22 2676.83 1073.22 2674.83 1066.22 2667.83 C 1043.22 2648.83 967.217 2625.83 910.217 2621.83 C 880.217 2618.83 854.217 2614.83 851.217 2612.83 C 849.217 2609.83 838.217 2616.83 826.217 2626.83 C 806.217 2645.83 806.217 2646.83 825.217 2667.83 C 860.217 2706.83 900.217 2720.83 979.217 2721.83 C 1060.22 2722.83 1103.22 2732.83 1094.22 2747.83 C 1090.22 2752.83 1062.22 2756.83 1031.22 2757.83 L 974.217 2758.83 L 1006.22 2772.83 C 1023.22 2779.83 1074.22 2788.83 1118.22 2792.83 C 1162.22 2796.83 1196.22 2803.83 1193.22 2807.83 C 1190.22 2812.83 1197.22 2816.83 1209.22 2816.83 C 1221.22 2816.83 1227.22 2821.83 1224.22 2826.83 C 1221.22 2832.83 1190.22 2836.83 1156.22 2837.83 C 1062.22 2839.83 1027.22 2854.83 1115.22 2855.83 C 1166.22 2856.83 1190.22 2860.83 1199.22 2871.83 C 1206.22 2880.83 1227.22 2894.83 1246.22 2903.83 C 1265.22 2912.83 1278.22 2924.83 1275.22 2931.83 C 1273.22 2938.83 1276.22 2949.83 1282.22 2955.83 C 1289.22 2962.83 1278.22 2960.83 1257.22 2951.83 C 1231.22 2941.83 1219.22 2939.83 1219.22 2947.83 C 1219.22 2953.83 1212.22 2955.83 1202.22 2952.83 C 1193.22 2948.83 1182.22 2951.83 1177.22 2958.83 C 1171.22 2968.83 1167.22 2968.83 1158.22 2956.83 C 1150.22 2945.83 1146.22 2944.83 1143.22 2953.83 C 1139.22 2962.83 1124.22 2960.83 1087.22 2945.83 C 1025.22 2921.83 1015.22 2926.83 1066.22 2956.83 C 1100.22 2976.83 1102.22 2979.83 1084.22 2986.83 C 1072.22 2990.83 1042.22 2984.83 1007.22 2969.83 C 975.217 2956.83 946.217 2947.83 942.217 2948.83 C 926.217 2952.83 889.217 2934.83 894.217 2926.83 C 901.217 2915.83 858.217 2903.83 832.217 2908.83 C 822.217 2910.83 815.217 2915.83 817.217 2919.83 C 818.217 2923.83 819.217 2937.83 819.217 2951.83 C 819.217 2966.83 825.217 2976.83 833.217 2976.83 C 840.217 2976.83 852.217 2983.83 860.217 2992.83 C 870.217 3005.83 870.217 3009.83 859.217 3016.83 C 852.217 3020.83 886.217 3022.83 935.217 3019.83 C 995.217 3016.83 1019.22 3018.83 1010.22 3024.83 C 999.217 3032.83 1008.22 3036.83 1043.22 3041.83 C 1077.22 3046.83 1089.22 3052.83 1085.22 3062.83 C 1082.22 3070.83 1085.22 3076.83 1092.22 3077.83 C 1099.22 3078.83 1111.22 3079.83 1119.22 3080.83 C 1127.22 3082.83 1143.22 3083.83 1154.22 3085.83 C 1165.22 3086.83 1183.22 3093.83 1194.22 3102.83 C 1210.22 3114.83 1211.22 3119.83 1201.22 3125.83 C 1193.22 3130.83 1188.22 3136.83 1188.22 3140.83 C 1191.22 3164.83 1187.22 3168.83 1164.22 3162.83 C 1150.22 3158.83 1139.22 3159.83 1139.22 3164.83 C 1139.22 3174.83 1109.22 3173.83 1092.22 3163.83 C 1085.22 3159.83 1071.22 3160.83 1059.22 3166.83 C 1048.22 3171.83 1030.22 3181.83 1018.22 3187.83 C 1004.22 3194.83 994.217 3194.83 985.217 3187.83 C 969.217 3174.83 891.217 3180.83 876.217 3195.83 C 868.217 3203.83 880.217 3206.83 920.217 3207.83 C 949.217 3207.83 983.217 3211.83 994.217 3216.83 C 1012.22 3223.83 1011.22 3224.83 984.217 3231.83 C 936.217 3242.83 932.217 3244.83 961.217 3245.83 C 976.217 3246.83 990.217 3250.83 993.217 3255.83 C 997.217 3260.83 1022.22 3267.83 1049.22 3271.83 C 1097.22 3278.83 1118.22 3295.83 1082.22 3297.83 C 1065.22 3298.83 1065.22 3299.83 1082.22 3303.83 C 1091.22 3305.83 1099.22 3309.83 1099.22 3311.83 C 1099.22 3322.83 1046.22 3366.83 1039.22 3361.83 C 1024.22 3352.83 899.217 3347.83 899.217 3355.83 C 899.217 3360.83 911.217 3372.83 926.217 3381.83 L 953.217 3399.83 L 931.217 3409.83 C 919.217 3415.83 909.217 3428.83 909.217 3438.83 C 909.217 3449.83 902.217 3464.83 894.217 3473.83 C 880.217 3487.83 876.217 3487.83 861.217 3473.83 C 845.217 3458.83 842.217 3458.83 832.217 3475.83 C 825.217 3486.83 823.217 3497.83 826.217 3500.83 C 830.217 3503.83 834.217 3519.83 836.217 3536.83 C 838.217 3557.83 835.217 3566.83 824.217 3566.83 C 816.217 3566.83 809.217 3561.83 809.217 3555.83 C 809.217 3550.83 804.217 3548.83 798.217 3552.83 C 792.217 3555.83 789.217 3570.83 792.217 3585.83 C 795.217 3599.83 793.217 3620.83 788.217 3631.83 C 780.217 3651.83 780.217 3651.83 774.217 3629.83 C 770.217 3617.83 760.217 3605.83 753.217 3602.83 C 741.217 3598.83 739.217 3585.83 744.217 3549.83 C 749.217 3505.83 748.217 3503.83 733.217 3522.83 C 720.217 3538.83 718.217 3538.83 723.217 3524.83 C 726.217 3514.83 724.217 3506.83 718.217 3506.83 C 712.217 3506.83 710.217 3497.83 714.217 3486.83 C 718.217 3474.83 716.217 3466.83 709.217 3466.83 C 702.217 3466.83 700.217 3459.83 703.217 3450.83 C 707.217 3439.83 705.217 3435.83 695.217 3439.83 C 687.217 3442.83 678.217 3442.83 674.217 3438.83 C 670.217 3434.83 663.217 3431.83 658.217 3431.83 C 653.217 3431.83 648.217 3427.83 647.217 3421.83 C 647.217 3416.83 639.217 3406.83 630.217 3399.83 C 621.217 3392.83 619.217 3386.83 624.217 3386.83 C 630.217 3386.83 627.217 3381.83 619.217 3376.83 C 608.217 3369.83 612.217 3366.83 637.217 3366.83 C 654.217 3366.83 669.217 3362.83 669.217 3357.83 C 669.217 3343.83 639.217 3334.83 588.217 3331.83 C 527.217 3327.83 493.217 3310.83 510.217 3290.83 C 519.217 3279.83 517.217 3276.83 500.217 3276.83 C 473.217 3276.83 473.217 3260.83 502.217 3242.83 C 518.217 3231.83 537.217 3229.83 574.217 3234.83 C 612.217 3240.83 637.217 3237.83 679.217 3223.83 C 751.217 3198.83 768.217 3181.83 713.217 3190.83 C 685.217 3194.83 662.217 3191.83 643.217 3181.83 C 627.217 3173.83 603.217 3166.83 589.217 3166.83 C 574.217 3166.83 556.217 3156.83 545.217 3142.83 C 529.217 3120.83 522.217 3118.83 476.217 3122.83 C 427.217 3127.83 425.217 3126.83 443.217 3112.83 C 462.217 3097.83 462.217 3096.83 433.217 3095.83 C 417.217 3094.83 411.217 3092.83 422.217 3089.83 C 431.217 3087.83 439.217 3080.83 439.217 3074.83 C 439.217 3067.83 416.217 3066.83 372.217 3070.83 C 324.217 3075.83 308.217 3074.83 319.217 3067.83 C 332.217 3058.83 331.217 3056.83 316.217 3056.83 C 305.217 3056.83 301.217 3051.83 305.217 3045.83 C 308.217 3039.83 305.217 3030.83 298.217 3025.83 C 288.217 3019.83 292.217 3016.83 312.217 3016.83 C 327.217 3016.83 339.217 3011.83 339.217 3005.83 C 339.217 2997.83 352.217 2995.83 376.217 2999.83 C 405.217 3004.83 416.217 3001.83 430.217 2985.83 C 440.217 2974.83 460.217 2961.83 476.217 2956.83 C 504.217 2948.83 504.217 2948.83 479.217 2946.83 C 465.217 2945.83 451.217 2944.83 447.217 2945.83 C 433.217 2947.83 439.217 2919.83 454.217 2906.83 C 473.217 2890.83 561.217 2900.83 605.217 2923.83 C 643.217 2943.83 694.217 2934.83 685.217 2909.83 C 680.217 2896.83 685.217 2895.83 714.217 2900.83 C 745.217 2906.83 750.217 2904.83 760.217 2882.83 C 773.217 2853.83 763.217 2798.83 748.217 2813.83 C 742.217 2819.83 721.217 2820.83 696.217 2815.83 C 647.217 2806.83 638.217 2811.83 665.217 2830.83 C 683.217 2844.83 683.217 2845.83 666.217 2852.83 C 656.217 2855.83 631.217 2855.83 611.217 2851.83 C 591.217 2847.83 543.217 2843.83 505.217 2842.83 C 462.217 2841.83 434.217 2837.83 432.217 2829.83 C 430.217 2823.83 438.217 2816.83 451.217 2814.83 C 472.217 2810.83 473.217 2809.83 455.217 2801.83 C 443.217 2796.83 424.217 2798.83 405.217 2805.83 C 349.217 2828.83 335.217 2830.83 344.217 2816.83 C 350.217 2806.83 345.217 2804.83 325.217 2808.83 C 311.217 2811.83 299.217 2809.83 299.217 2805.83 C 299.217 2800.83 290.217 2796.83 279.217 2796.83 C 248.217 2796.83 255.217 2780.83 292.217 2768.83 C 323.217 2758.83 323.217 2758.83 297.217 2757.83 C 282.217 2756.83 267.217 2751.83 264.217 2745.83 C 259.217 2738.83 269.217 2737.83 293.217 2741.83 C 313.217 2745.83 337.217 2745.83 346.217 2741.83 C 361.217 2735.83 359.217 2732.83 335.217 2722.83 C 308.217 2711.83 307.217 2709.83 323.217 2693.83 C 333.217 2684.83 347.217 2676.83 354.217 2676.83 C 363.217 2676.83 366.217 2670.83 362.217 2660.83 C 357.217 2646.83 359.217 2645.83 379.217 2656.83 C 397.217 2666.83 400.217 2665.83 394.217 2655.83 C 388.217 2646.83 391.217 2645.83 405.217 2651.83 C 415.217 2655.83 434.217 2659.83 446.217 2660.83 C 458.217 2661.83 471.217 2664.83 475.217 2669.83 C 479.217 2673.83 496.217 2676.83 513.217 2676.83 C 541.217 2676.83 542.217 2675.83 523.217 2662.83 C 513.217 2654.83 506.217 2645.83 509.217 2643.83 C 524.217 2628.83 600.217 2638.83 626.217 2658.83 C 634.217 2664.83 656.217 2657.83 690.217 2637.83 L 743.217 2607.83 L 746.217 2500.83 C 747.217 2421.83 745.217 2396.83 737.217 2404.83 C 729.217 2412.83 722.217 2412.83 713.217 2405.83 C 698.217 2392.83 672.217 2405.83 613.217 2453.83 C 570.217 2487.83 501.217 2501.83 512.217 2473.83 C 519.217 2455.83 425.217 2456.83 407.217 2474.83 C 401.217 2480.83 388.217 2486.83 380.217 2486.83 C 368.217 2486.83 368.217 2483.83 377.217 2474.83 C 397.217 2454.83 390.217 2444.83 367.217 2460.83 C 355.217 2469.83 340.217 2476.83 335.217 2476.83 C 329.217 2476.83 335.217 2469.83 347.217 2460.83 C 359.217 2452.83 367.217 2441.83 364.217 2436.83 C 361.217 2432.83 365.217 2425.83 371.217 2423.83 C 378.217 2420.83 372.217 2417.83 358.217 2417.83 C 343.217 2416.83 326.217 2423.83 319.217 2432.83 C 311.217 2440.83 297.217 2452.83 287.217 2457.83 C 269.217 2467.83 269.217 2466.83 280.217 2445.83 L 292.217 2423.83 L 254.217 2445.83 C 214.217 2468.83 198.217 2467.83 219.217 2441.83 C 229.217 2429.83 228.217 2426.83 213.217 2426.83 C 202.217 2427.83 177.217 2433.83 156.217 2440.83 C 124.217 2452.83 79.217 2452.83 79.217 2441.83 C 79.217 2425.83 94.217 2406.83 108.217 2406.83 C 122.217 2405.83 122.217 2404.83 106.217 2392.83 C 91.217 2380.83 95.217 2378.83 141.217 2374.83 C 170.217 2371.83 204.217 2372.83 217.217 2377.83 C 230.217 2382.83 255.217 2386.83 272.217 2385.83 C 299.217 2385.83 301.217 2383.83 284.217 2376.83 C 273.217 2372.83 245.217 2363.83 222.217 2357.83 C 198.217 2350.83 179.217 2340.83 179.217 2335.83 C 179.217 2329.83 186.217 2326.83 194.217 2330.83 C 202.217 2333.83 209.217 2331.83 209.217 2326.83 C 209.217 2321.83 224.217 2323.83 241.217 2330.83 C 259.217 2338.83 290.217 2347.83 309.217 2350.83 L 344.217 2357.83 L 299.217 2331.83 C 266.217 2312.83 261.217 2306.83 279.217 2309.83 C 293.217 2312.83 313.217 2317.83 323.217 2321.83 C 337.217 2327.83 340.217 2326.83 335.217 2317.83 C 329.217 2308.83 335.217 2307.83 356.217 2312.83 C 382.217 2319.83 383.217 2318.83 369.217 2301.83 C 355.217 2284.83 356.217 2283.83 374.217 2290.83 C 385.217 2295.83 403.217 2299.83 413.217 2301.83 C 424.217 2302.83 435.217 2308.83 437.217 2314.83 C 439.217 2320.83 456.217 2328.83 476.217 2332.83 C 499.217 2336.83 507.217 2341.83 498.217 2346.83 C 490.217 2351.83 502.217 2357.83 530.217 2361.83 C 567.217 2366.83 584.217 2362.83 635.217 2337.83 C 691.217 2310.83 698.217 2303.83 713.217 2260.83 C 722.217 2234.83 727.217 2211.83 725.217 2209.83 C 715.217 2198.83 638.217 2229.83 628.217 2247.83 C 622.217 2258.83 612.217 2265.83 604.217 2263.83 C 597.217 2260.83 586.217 2263.83 580.217 2269.83 C 565.217 2284.83 565.217 2252.83 579.217 2225.83 C 593.217 2200.83 577.217 2200.83 561.217 2226.83 C 546.217 2251.83 507.217 2254.83 516.217 2230.83 C 521.217 2217.83 518.217 2215.83 503.217 2223.83 C 493.217 2229.83 471.217 2232.83 454.217 2231.83 C 438.217 2230.83 416.217 2228.83 406.217 2227.83 C 396.217 2227.83 391.217 2222.83 394.217 2216.83 C 404.217 2200.83 383.217 2204.83 369.217 2221.83 C 362.217 2230.83 339.217 2250.83 317.217 2267.83 L 279.217 2298.83 L 174.217 2232.83 C 117.217 2196.83 67.217 2166.83 64.217 2166.83 C 55.217 2166.83 59.217 2343.83 70.217 2444.83 C 112.217 2836.83 273.217 3221.83 517.217 3519.83 C 586.217 3602.83 739.217 3755.83 819.217 3819.83 C 1114.22 4056.83 1502.22 4215.83 1884.22 4255.83 C 1999.22 4267.83 2200.22 4267.83 2304.22 4256.83 Z M 722.217 3339.83 C 715.217 3337.83 701.217 3337.83 692.217 3339.83 C 682.217 3342.83 688.217 3344.83 704.217 3344.83 C 721.217 3344.83 728.217 3342.83 722.217 3339.83 Z M 906.217 3250.83 C 908.217 3243.83 900.217 3240.83 884.217 3243.83 C 870.217 3246.83 859.217 3253.83 859.217 3258.83 C 859.217 3271.83 902.217 3264.83 906.217 3250.83 Z M 769.217 3026.83 C 769.217 2978.83 752.217 2957.83 726.217 2973.83 C 720.217 2977.83 699.217 2982.83 680.217 2985.83 C 642.217 2992.83 625.217 3016.83 659.217 3016.83 C 692.217 3016.83 736.217 3043.83 742.217 3067.83 C 752.217 3103.83 769.217 3077.83 769.217 3026.83 Z M 839.217 3033.83 C 839.217 3000.83 814.217 3021.83 811.217 3057.83 C 809.217 3089.83 810.217 3090.83 824.217 3072.83 C 832.217 3061.83 839.217 3044.83 839.217 3033.83 Z M 2305.22 2901.83 C 2296.22 2888.83 2289.22 2869.83 2289.22 2859.83 C 2289.22 2850.83 2274.22 2826.83 2255.22 2806.83 C 2237.22 2787.83 2212.22 2749.83 2201.22 2723.83 C 2175.22 2664.83 2191.22 2671.83 2224.22 2734.83 C 2247.22 2779.83 2292.22 2836.83 2304.22 2836.83 C 2307.22 2836.83 2309.22 2810.83 2309.22 2779.83 C 2309.22 2747.83 2316.22 2703.83 2324.22 2681.83 C 2349.22 2612.83 2339.22 2609.83 2305.22 2675.83 C 2280.22 2723.83 2271.22 2735.83 2266.22 2722.83 C 2257.22 2698.83 2257.22 2638.83 2267.22 2634.83 C 2277.22 2630.83 2318.22 2506.83 2309.22 2506.83 C 2297.22 2506.83 2269.22 2554.83 2263.22 2585.83 C 2258.22 2607.83 2253.22 2613.83 2240.22 2608.83 C 2220.22 2601.83 2209.22 2586.83 2209.22 2566.83 C 2209.22 2553.83 2210.22 2553.83 2219.22 2566.83 C 2233.22 2588.83 2238.22 2576.83 2241.22 2516.83 C 2244.22 2466.83 2242.22 2461.83 2224.22 2463.83 C 2208.22 2465.83 2193.22 2448.83 2161.22 2398.83 L 2119.22 2331.83 L 2125.22 2391.83 L 2131.22 2451.83 L 2111.22 2421.83 C 2100.22 2405.83 2079.22 2371.83 2063.22 2346.83 C 2028.22 2289.83 2020.22 2309.83 2048.22 2387.83 C 2060.22 2419.83 2067.22 2450.83 2064.22 2456.83 C 2061.22 2461.83 2066.22 2490.83 2074.22 2521.83 C 2083.22 2551.83 2089.22 2582.83 2086.22 2589.83 C 2084.22 2595.83 2076.22 2582.83 2069.22 2558.83 C 2062.22 2535.83 2054.22 2518.83 2051.22 2520.83 C 2044.22 2527.83 2079.22 2637.83 2105.22 2688.83 C 2118.22 2714.83 2129.22 2738.83 2129.22 2742.83 C 2129.22 2757.83 2096.22 2719.83 2077.22 2682.83 C 2066.22 2660.83 2036.22 2620.83 2010.22 2592.83 C 1985.22 2564.83 1955.22 2530.83 1944.22 2516.83 L 1924.22 2492.83 L 1952.22 2509.83 L 1980.22 2527.83 L 1973.22 2499.83 C 1964.22 2458.83 1939.22 2427.83 1875.22 2376.83 C 1844.22 2351.83 1793.22 2297.83 1763.22 2256.83 C 1648.22 2099.83 1625.22 2074.83 1556.22 2025.83 C 1455.22 1954.83 1403.22 1929.83 1291.22 1900.83 C 1238.22 1886.83 1166.22 1866.83 1132.22 1855.83 C 1075.22 1836.83 1068.22 1836.83 1047.22 1850.83 C 1035.22 1859.83 1029.22 1866.83 1035.22 1866.83 C 1041.22 1866.83 1054.22 1873.83 1065.22 1881.83 C 1083.22 1894.83 1083.22 1895.83 1060.22 1889.83 C 1044.22 1885.83 1038.22 1886.83 1043.22 1894.83 C 1046.22 1900.83 1040.22 1906.83 1028.22 1908.83 C 1012.22 1910.83 1044.22 1934.83 1145.22 1993.83 C 1221.22 2038.83 1303.22 2089.83 1327.22 2106.83 C 1410.22 2166.83 1367.22 2126.83 1242.22 2026.83 C 1171.22 1970.83 1112.22 1920.83 1110.22 1914.83 C 1102.22 1890.83 1235.22 1974.83 1302.22 2034.83 C 1357.22 2083.83 1351.22 2076.83 1277.22 2002.83 C 1148.22 1874.83 1157.22 1875.83 1334.22 2007.83 C 1384.22 2044.83 1444.22 2090.83 1469.22 2110.83 C 1494.22 2130.83 1519.22 2146.83 1525.22 2146.83 C 1547.22 2146.83 1779.22 2372.83 1779.22 2393.83 C 1779.22 2398.83 1764.22 2390.83 1727.22 2364.83 C 1685.22 2335.83 1682.22 2343.83 1720.22 2384.83 C 1740.22 2404.83 1777.22 2449.83 1803.22 2484.83 C 1829.22 2519.83 1885.22 2581.83 1926.22 2623.83 L 2002.22 2698.83 L 1970.22 2640.83 L 1937.22 2581.83 L 1973.22 2616.83 C 1993.22 2636.83 2020.22 2678.83 2033.22 2710.83 C 2068.22 2797.83 2122.22 2886.83 2136.22 2881.83 C 2143.22 2879.83 2162.22 2897.83 2179.22 2921.83 C 2221.22 2983.83 2230.22 2984.83 2208.22 2926.83 C 2166.22 2816.83 2193.22 2837.83 2240.22 2951.83 C 2258.22 2995.83 2280.22 3042.83 2288.22 3056.83 C 2304.22 3080.83 2304.22 3078.83 2313.22 3003.83 C 2320.22 2939.83 2319.22 2922.83 2305.22 2901.83 Z M 377.217 3029.83 C 367.217 3027.83 351.217 3027.83 342.217 3029.83 C 332.217 3032.83 340.217 3034.83 359.217 3034.83 C 378.217 3034.83 386.217 3032.83 377.217 3029.83 Z M 538.217 3002.83 C 568.217 2986.83 551.217 2973.83 512.217 2982.83 C 472.217 2992.83 465.217 2997.83 480.217 3007.83 C 499.217 3019.83 510.217 3018.83 538.217 3002.83 Z M 2390.22 2901.83 C 2397.22 2888.83 2393.22 2889.83 2380.22 2906.83 C 2369.22 2920.83 2359.22 2936.83 2359.22 2941.83 C 2359.22 2952.83 2373.22 2934.83 2390.22 2901.83 Z M 2398.22 2823.83 C 2421.22 2756.83 2425.22 2676.83 2408.22 2627.83 C 2399.22 2602.83 2394.22 2598.83 2383.22 2607.83 C 2375.22 2613.83 2369.22 2626.83 2369.22 2636.83 C 2369.22 2645.83 2358.22 2674.83 2344.22 2700.83 C 2330.22 2727.83 2319.22 2764.83 2319.22 2786.83 C 2319.22 2808.83 2314.22 2836.83 2308.22 2850.83 C 2298.22 2872.83 2299.22 2878.83 2320.22 2895.83 C 2342.22 2912.83 2346.22 2913.83 2361.22 2899.83 C 2370.22 2891.83 2387.22 2857.83 2398.22 2823.83 Z M 889.217 2846.83 C 968.217 2852.83 992.217 2851.83 996.217 2841.83 C 1000.22 2829.83 894.217 2772.83 881.217 2780.83 C 876.217 2783.83 864.217 2777.83 854.217 2766.83 C 836.217 2746.83 836.217 2746.83 821.217 2776.83 C 802.217 2814.83 812.217 2861.83 837.217 2851.83 C 846.217 2847.83 870.217 2845.83 889.217 2846.83 Z M 2512.22 2776.83 C 2517.22 2768.83 2507.22 2777.83 2490.22 2796.83 C 2473.22 2815.83 2459.22 2834.83 2459.22 2839.83 C 2459.22 2848.83 2491.22 2810.83 2512.22 2776.83 Z M 545.217 2727.83 C 538.217 2716.83 489.217 2706.83 489.217 2717.83 C 489.217 2723.83 502.217 2728.83 542.217 2735.83 C 547.217 2735.83 548.217 2732.83 545.217 2727.83 Z M 759.217 2711.83 C 759.217 2688.83 757.217 2687.83 733.217 2698.83 C 709.217 2709.83 708.217 2711.83 725.217 2723.83 C 751.217 2742.83 759.217 2739.83 759.217 2711.83 Z M 2556.22 2669.83 C 2585.22 2666.83 2606.22 2659.83 2603.22 2654.83 C 2599.22 2649.83 2588.22 2647.83 2577.22 2649.83 C 2563.22 2653.83 2559.22 2651.83 2563.22 2640.83 C 2568.22 2628.83 2563.22 2628.83 2538.22 2642.83 C 2521.22 2650.83 2506.22 2656.83 2504.22 2654.83 C 2501.22 2651.83 2514.22 2612.83 2534.22 2561.83 L 2542.22 2541.83 L 2519.22 2561.83 L 2496.22 2581.83 L 2509.22 2556.83 C 2516.22 2542.83 2564.22 2487.83 2617.22 2434.83 C 2696.22 2353.83 2710.22 2336.83 2691.22 2336.83 C 2678.22 2336.83 2655.22 2329.83 2640.22 2321.83 C 2609.22 2305.83 2616.22 2299.83 2481.22 2467.83 C 2450.22 2505.83 2439.22 2504.83 2439.22 2464.83 L 2438.22 2431.83 L 2404.22 2471.83 C 2374.22 2507.83 2371.22 2513.83 2383.22 2531.83 C 2391.22 2543.83 2405.22 2550.83 2418.22 2548.83 C 2435.22 2545.83 2439.22 2550.83 2439.22 2575.83 C 2439.22 2592.83 2446.22 2624.83 2455.22 2646.83 C 2468.22 2677.83 2476.22 2686.83 2488.22 2681.83 C 2497.22 2677.83 2528.22 2672.83 2556.22 2669.83 Z M 1205.22 2661.83 C 1194.22 2653.83 1176.22 2646.83 1165.22 2647.83 C 1150.22 2647.83 1154.22 2651.83 1179.22 2661.83 C 1224.22 2678.83 1228.22 2678.83 1205.22 2661.83 Z M 1212.22 2629.83 C 1205.22 2627.83 1193.22 2627.83 1187.22 2629.83 C 1180.22 2632.83 1185.22 2634.83 1199.22 2634.83 C 1213.22 2634.83 1218.22 2632.83 1212.22 2629.83 Z M 1346.22 2620.83 C 1343.22 2617.83 1334.22 2616.83 1327.22 2619.83 C 1319.22 2622.83 1322.22 2625.83 1333.22 2625.83 C 1344.22 2626.83 1350.22 2623.83 1346.22 2620.83 Z M 1284.22 2601.83 C 1244.22 2582.83 1217.22 2583.83 1249.22 2601.83 C 1263.22 2609.83 1283.22 2615.83 1294.22 2615.83 C 1309.22 2614.83 1307.22 2611.83 1284.22 2601.83 Z M 2353.22 2444.83 C 2365.22 2368.83 2370.22 2316.83 2366.22 2316.83 C 2363.22 2316.83 2351.22 2337.83 2339.22 2362.83 L 2318.22 2408.83 L 2266.22 2341.83 C 2237.22 2304.83 2205.22 2260.83 2194.22 2242.83 C 2178.22 2216.83 2183.22 2218.83 2229.22 2261.83 C 2259.22 2288.83 2289.22 2319.83 2295.22 2329.83 C 2305.22 2347.83 2310.22 2343.83 2348.22 2290.83 C 2401.22 2216.83 2397.22 2199.83 2330.22 2221.83 L 2307.22 2228.83 L 2325.22 2196.83 C 2336.22 2179.83 2352.22 2157.83 2362.22 2148.83 C 2380.22 2132.83 2382.22 2133.83 2408.22 2165.83 C 2426.22 2187.83 2438.22 2195.83 2443.22 2188.83 C 2447.22 2181.83 2461.22 2176.83 2474.22 2176.83 C 2519.22 2176.83 2550.22 2153.83 2576.22 2102.83 C 2590.22 2074.83 2624.22 2025.83 2651.22 1993.83 C 2700.22 1936.83 2700.22 1935.83 2673.22 1940.83 C 2654.22 1943.83 2625.22 1965.83 2592.22 2003.83 C 2527.22 2075.83 2522.22 2058.83 2585.22 1979.83 C 2679.22 1862.83 2731.22 1816.83 2821.22 1770.83 C 2869.22 1746.83 2920.22 1726.83 2934.22 1726.83 C 2950.22 1726.83 2958.22 1722.83 2953.22 1715.83 C 2950.22 1709.83 2938.22 1706.83 2928.22 1709.83 C 2918.22 1712.83 2906.22 1710.83 2903.22 1705.83 C 2894.22 1689.83 2879.22 1695.83 2869.22 1719.83 L 2860.22 1741.83 L 2858.22 1716.83 C 2857.22 1702.83 2856.22 1685.83 2856.22 1679.83 C 2857.22 1672.83 2851.22 1666.83 2844.22 1666.83 C 2826.22 1666.83 2820.22 1645.83 2831.22 1624.83 C 2838.22 1609.83 2835.22 1606.83 2810.22 1606.83 C 2784.22 1606.83 2781.22 1609.83 2784.22 1634.83 C 2785.22 1649.83 2783.22 1664.83 2777.22 1667.83 C 2772.22 1670.83 2766.22 1682.83 2765.22 1692.83 C 2763.22 1702.83 2756.22 1710.83 2750.22 1708.83 C 2744.22 1707.83 2739.22 1718.83 2739.22 1733.83 C 2738.22 1758.83 2737.22 1759.83 2728.22 1743.83 C 2722.22 1733.83 2720.22 1718.83 2723.22 1710.83 C 2727.22 1700.83 2725.22 1698.83 2717.22 1702.83 C 2709.22 1707.83 2708.22 1704.83 2712.22 1693.83 C 2715.22 1684.83 2714.22 1674.83 2709.22 1671.83 C 2704.22 1668.83 2702.22 1654.83 2705.22 1641.83 C 2709.22 1620.83 2706.22 1616.83 2684.22 1616.83 C 2666.22 1616.83 2659.22 1621.83 2659.22 1635.83 C 2659.22 1654.83 2640.22 1675.83 2638.22 1659.83 C 2637.22 1655.83 2635.22 1640.83 2633.22 1626.83 C 2631.22 1612.83 2626.22 1588.83 2621.22 1571.83 L 2612.22 1541.83 L 2600.22 1581.83 C 2594.22 1603.83 2586.22 1640.83 2582.22 1664.83 C 2575.22 1711.83 2559.22 1721.83 2559.22 1677.83 C 2559.22 1661.83 2553.22 1643.83 2545.22 1637.83 C 2538.22 1631.83 2528.22 1607.83 2525.22 1583.83 L 2518.22 1541.83 L 2499.22 1566.83 C 2483.22 1588.83 2482.22 1592.83 2496.22 1596.83 C 2508.22 1601.83 2509.22 1604.83 2497.22 1613.83 C 2490.22 1619.83 2477.22 1626.83 2469.22 1629.83 C 2461.22 1632.83 2468.22 1635.83 2484.22 1635.83 C 2503.22 1636.83 2519.22 1644.83 2527.22 1656.83 C 2538.22 1674.83 2537.22 1676.83 2512.22 1676.83 C 2474.22 1676.83 2451.22 1691.83 2475.22 1700.83 C 2490.22 1706.83 2491.22 1708.83 2475.22 1725.83 C 2466.22 1734.83 2462.22 1746.83 2465.22 1749.83 C 2469.22 1753.83 2466.22 1762.83 2459.22 1771.83 C 2451.22 1781.83 2450.22 1786.83 2458.22 1786.83 C 2475.22 1786.83 2471.22 1816.83 2453.22 1823.83 C 2441.22 1827.83 2440.22 1831.83 2450.22 1837.83 C 2461.22 1843.83 2461.22 1849.83 2450.22 1869.83 C 2443.22 1883.83 2440.22 1899.83 2443.22 1905.83 C 2447.22 1911.83 2446.22 1916.83 2440.22 1916.83 C 2435.22 1916.83 2429.22 1924.83 2426.22 1934.83 C 2423.22 1947.83 2419.22 1944.83 2408.22 1921.83 C 2401.22 1905.83 2392.22 1889.83 2389.22 1886.83 C 2386.22 1883.83 2384.22 1868.83 2384.22 1851.83 L 2384.22 1821.83 L 2315.22 1818.83 C 2276.22 1816.83 2241.22 1820.83 2235.22 1826.83 C 2228.22 1833.83 2238.22 1834.83 2271.22 1830.83 C 2318.22 1823.83 2346.22 1839.83 2318.22 1857.83 C 2307.22 1863.83 2307.22 1866.83 2320.22 1871.83 C 2329.22 1874.83 2336.22 1884.83 2336.22 1892.83 C 2336.22 1904.83 2328.22 1906.83 2301.22 1901.83 C 2263.22 1894.83 2209.22 1903.83 2209.22 1917.83 C 2209.22 1922.83 2217.22 1926.83 2227.22 1926.83 C 2242.22 1926.83 2242.22 1928.83 2229.22 1936.83 C 2218.22 1944.83 2221.22 1945.83 2240.22 1940.83 C 2255.22 1937.83 2270.22 1939.83 2273.22 1945.83 C 2277.22 1951.83 2291.22 1956.83 2305.22 1956.83 C 2319.22 1956.83 2329.22 1962.83 2329.22 1970.83 C 2329.22 1989.83 2305.22 2007.83 2283.22 2005.83 C 2246.22 2001.83 2228.22 2006.83 2235.22 2017.83 C 2238.22 2023.83 2235.22 2032.83 2228.22 2037.83 C 2217.22 2043.83 2217.22 2046.83 2227.22 2046.83 C 2236.22 2046.83 2235.22 2054.83 2222.22 2074.83 C 2212.22 2089.83 2202.22 2103.83 2199.22 2106.83 C 2196.22 2109.83 2188.22 2122.83 2182.22 2136.83 C 2174.22 2152.83 2170.22 2155.83 2170.22 2145.83 C 2169.22 2136.83 2162.22 2123.83 2154.22 2116.83 C 2143.22 2107.83 2141.22 2100.83 2149.22 2092.83 C 2164.22 2077.83 2161.22 2066.83 2143.22 2066.83 C 2134.22 2066.83 2129.22 2059.83 2131.22 2049.83 C 2133.22 2039.83 2126.22 2027.83 2114.22 2021.83 C 2102.22 2014.83 2094.22 2000.83 2094.22 1986.83 C 2094.22 1966.83 2088.22 1960.83 2064.22 1958.83 C 2031.22 1954.83 2006.22 1938.83 2014.22 1925.83 C 2017.22 1921.83 2047.22 1914.83 2080.22 1910.83 C 2139.22 1903.83 2172.22 1886.83 2125.22 1886.83 C 2112.22 1886.83 2099.22 1881.83 2097.22 1876.83 C 2095.22 1870.83 2084.22 1864.83 2071.22 1861.83 C 2059.22 1859.83 2051.22 1861.83 2054.22 1865.83 C 2060.22 1876.83 2042.22 1883.83 2009.22 1882.83 C 1979.22 1881.83 1966.22 1895.83 1981.22 1913.83 C 1988.22 1922.83 1988.22 1926.83 1981.22 1926.83 C 1975.22 1926.83 1972.22 1933.83 1975.22 1941.83 C 1979.22 1950.83 1975.22 1956.83 1965.22 1956.83 C 1954.22 1956.83 1949.22 1965.83 1949.22 1987.83 C 1949.22 2007.83 1945.22 2015.83 1937.22 2010.83 C 1929.22 2005.83 1928.22 2008.83 1932.22 2019.83 C 1936.22 2031.83 1933.22 2036.83 1922.22 2036.83 C 1910.22 2036.83 1909.22 2039.83 1919.22 2051.83 C 1925.22 2059.83 1928.22 2069.83 1925.22 2074.83 C 1922.22 2079.83 1928.22 2091.83 1939.22 2101.83 C 1957.22 2117.83 1959.22 2117.83 1959.22 2103.83 C 1959.22 2074.83 1973.22 2085.83 2013.22 2146.83 C 2034.22 2179.83 2054.22 2206.83 2057.22 2206.83 C 2059.22 2206.83 2067.22 2198.83 2074.22 2189.83 C 2085.22 2174.83 2091.22 2179.83 2124.22 2230.83 C 2144.22 2262.83 2168.22 2308.83 2176.22 2332.83 C 2186.22 2363.83 2201.22 2382.83 2227.22 2398.83 C 2248.22 2410.83 2279.22 2432.83 2297.22 2448.83 C 2339.22 2484.83 2347.22 2483.83 2353.22 2444.83 Z M 1974.22 2391.83 C 1924.22 2298.83 1736.22 2115.83 1713.22 2138.83 C 1709.22 2143.83 1799.22 2268.83 1832.22 2305.83 C 1866.22 2342.83 1991.22 2448.83 1995.22 2443.83 C 1997.22 2441.83 1988.22 2418.83 1974.22 2391.83 Z M 444.217 2418.83 C 441.217 2415.83 433.217 2418.83 426.217 2425.83 C 417.217 2435.83 418.217 2436.83 432.217 2430.83 C 442.217 2427.83 447.217 2421.83 444.217 2418.83 Z M 2759.22 2339.83 C 2759.22 2331.83 2750.22 2339.83 2709.22 2384.83 L 2664.22 2431.83 L 2712.22 2386.83 C 2738.22 2362.83 2759.22 2341.83 2759.22 2339.83 Z M 2458.22 2322.83 C 2469.22 2299.83 2480.22 2270.83 2484.22 2256.83 L 2490.22 2231.83 L 2468.22 2256.83 C 2448.22 2280.83 2389.22 2388.83 2389.22 2402.83 C 2389.22 2419.83 2441.22 2359.83 2458.22 2322.83 Z M 3760.22 2295.83 C 3717.22 2237.83 3713.22 2227.83 3736.22 2244.83 C 3768.22 2267.83 3808.22 2309.83 3832.22 2346.83 C 3842.22 2359.83 3849.22 2367.83 3849.22 2362.83 C 3849.22 2346.83 3805.22 2290.83 3740.22 2224.83 C 3704.22 2186.83 3678.22 2156.83 3683.22 2156.83 C 3688.22 2156.83 3686.22 2149.83 3679.22 2141.83 C 3668.22 2128.83 3669.22 2127.83 3685.22 2132.83 C 3696.22 2136.83 3691.22 2129.83 3674.22 2115.83 C 3605.22 2061.83 3620.22 2054.83 3704.22 2101.83 C 3769.22 2137.83 3895.22 2251.83 3936.22 2311.83 C 3954.22 2337.83 3959.22 2339.83 3973.22 2326.83 C 3988.22 2314.83 3986.22 2309.83 3947.22 2268.83 C 3901.22 2220.83 3909.22 2221.83 3974.22 2269.83 C 4004.22 2292.83 3996.22 2280.83 3944.22 2226.83 C 3879.22 2158.83 3877.22 2155.83 3919.22 2184.83 C 3944.22 2202.83 3982.22 2230.83 4004.22 2247.83 C 4026.22 2264.83 4010.22 2245.83 3969.22 2206.83 C 3888.22 2128.83 3891.22 2125.83 3982.22 2193.83 C 4013.22 2216.83 4039.22 2232.83 4039.22 2226.83 C 4039.22 2221.83 4023.22 2204.83 4003.22 2189.83 C 3928.22 2131.83 3926.22 2126.83 3993.22 2160.83 C 4031.22 2180.83 4064.22 2194.83 4066.22 2192.83 C 4074.22 2184.83 4001.22 2139.83 3889.22 2083.83 C 3757.22 2017.83 3778.22 2016.83 3917.22 2081.83 C 3968.22 2106.83 4007.22 2121.83 4003.22 2114.83 C 3999.22 2108.83 3937.22 2075.83 3865.22 2040.83 C 3792.22 2004.83 3744.22 1976.83 3757.22 1976.83 C 3769.22 1976.83 3795.22 1983.83 3814.22 1990.83 C 3864.22 2011.83 3857.22 2003.83 3797.22 1967.83 C 3739.22 1932.83 3756.22 1933.83 3858.22 1968.83 C 3925.22 1990.83 3923.22 1990.83 3898.22 1965.83 C 3861.22 1928.83 3886.22 1933.83 3941.22 1974.83 C 3970.22 1995.83 4020.22 2028.83 4052.22 2046.83 C 4106.22 2076.83 4109.22 2077.83 4109.22 2057.83 C 4109.22 2046.83 4099.22 2031.83 4087.22 2024.83 L 4064.22 2012.83 L 4089.22 2006.83 C 4112.22 2001.83 4108.22 1996.83 4041.22 1953.83 C 4002.22 1927.83 3969.22 1904.83 3969.22 1901.83 C 3969.22 1898.83 3996.22 1909.83 4029.22 1926.83 C 4094.22 1959.83 4099.22 1960.83 4099.22 1947.83 C 4099.22 1942.83 4074.22 1923.83 4044.22 1906.83 C 3982.22 1871.83 3976.22 1863.83 4017.22 1871.83 L 4044.22 1877.83 L 4019.22 1861.83 C 3999.22 1849.83 3998.22 1846.83 4014.22 1850.83 C 4084.22 1867.83 4092.22 1865.83 4044.22 1842.83 C 3999.22 1821.83 3990.22 1820.83 3954.22 1831.83 C 3905.22 1845.83 3706.22 1954.83 3627.22 2009.83 C 3583.22 2039.83 3563.22 2047.83 3542.22 2043.83 C 3527.22 2040.83 3501.22 2045.83 3485.22 2053.83 C 3469.22 2061.83 3444.22 2066.83 3428.22 2062.83 C 3408.22 2058.83 3390.22 2064.83 3361.22 2084.83 C 3302.22 2125.83 3254.22 2165.83 3259.22 2169.83 C 3262.22 2171.83 3291.22 2187.83 3324.22 2205.83 L 3384.22 2237.83 L 3339.22 2196.83 C 3282.22 2143.83 3276.22 2140.83 3534.22 2301.83 C 3559.22 2317.83 3557.22 2312.83 3519.22 2271.83 C 3493.22 2243.83 3484.22 2229.83 3499.22 2239.83 C 3556.22 2277.83 3566.22 2280.83 3540.22 2252.83 C 3507.22 2217.83 3526.22 2219.83 3569.22 2256.83 C 3644.22 2321.83 3683.22 2350.83 3669.22 2331.83 C 3661.22 2320.83 3648.22 2302.83 3639.22 2290.83 C 3631.22 2279.83 3644.22 2290.83 3668.22 2315.83 L 3712.22 2361.83 L 3688.22 2316.83 C 3664.22 2271.83 3656.22 2236.83 3669.22 2236.83 C 3672.22 2236.83 3704.22 2266.83 3740.22 2304.83 C 3775.22 2341.83 3806.22 2370.83 3808.22 2369.83 C 3810.22 2368.83 3788.22 2334.83 3760.22 2295.83 Z M 2895.22 2294.83 C 2923.22 2278.83 2963.22 2248.83 2985.22 2229.83 L 3024.22 2194.83 L 2984.22 2217.83 C 2936.22 2244.83 2863.22 2292.83 2829.22 2319.83 C 2794.22 2347.83 2829.22 2334.83 2895.22 2294.83 Z M 3164.22 2199.83 C 3285.22 2102.83 3410.22 2016.83 3490.22 1976.83 C 3556.22 1942.83 3568.22 1943.83 3513.22 1976.83 C 3494.22 1988.83 3480.22 2000.83 3482.22 2003.83 C 3493.22 2013.83 3566.22 1972.83 3609.22 1932.83 C 3661.22 1883.83 3725.22 1848.83 3809.22 1821.83 C 3839.22 1812.83 3891.22 1791.83 3924.22 1776.83 C 3957.22 1761.83 4002.22 1743.83 4024.22 1735.83 C 4099.22 1710.83 4027.22 1714.83 3918.22 1741.83 C 3861.22 1755.83 3805.22 1769.83 3794.22 1771.83 C 3783.22 1774.83 3802.22 1763.83 3836.22 1747.83 C 3889.22 1722.83 3897.22 1715.83 3892.22 1696.83 C 3889.22 1684.83 3880.22 1672.83 3873.22 1669.83 C 3865.22 1666.83 3776.22 1705.83 3675.22 1755.83 C 3501.22 1841.83 3487.22 1849.83 3437.22 1908.83 C 3353.22 2007.83 3320.22 2036.83 3204.22 2116.83 C 3130.22 2167.83 3101.22 2192.83 3113.22 2194.83 C 3128.22 2197.83 3121.22 2209.83 3078.22 2254.83 C 3019.22 2316.83 3020.22 2315.83 3164.22 2199.83 Z M 3719.22 2303.83 C 3719.22 2301.83 3707.22 2289.83 3692.22 2275.83 L 3664.22 2251.83 L 3688.22 2279.83 C 3711.22 2304.83 3719.22 2311.83 3719.22 2303.83 Z M 1227.22 2270.83 C 1217.22 2260.83 1206.22 2257.83 1198.22 2262.83 C 1186.22 2269.83 1198.22 2276.83 1239.22 2285.83 C 1241.22 2286.83 1236.22 2279.83 1227.22 2270.83 Z M 2739.22 2246.83 C 2751.22 2230.83 2769.22 2216.83 2780.22 2216.83 C 2802.22 2216.83 2895.22 2148.83 2943.22 2097.83 C 2974.22 2065.83 2972.22 2058.83 2938.22 2076.83 C 2906.22 2093.83 2916.22 2070.83 2952.22 2042.83 C 2969.22 2029.83 3004.22 2009.83 3029.22 1998.83 C 3054.22 1987.83 3088.22 1964.83 3104.22 1946.83 C 3121.22 1928.83 3158.22 1896.83 3187.22 1874.83 C 3217.22 1852.83 3238.22 1832.83 3235.22 1829.83 C 3232.22 1826.83 3205.22 1838.83 3173.22 1855.83 C 3142.22 1873.83 3115.22 1885.83 3112.22 1883.83 C 3110.22 1880.83 3142.22 1859.83 3183.22 1835.83 C 3258.22 1792.83 3275.22 1776.83 3225.22 1795.83 C 3159.22 1821.83 3213.22 1789.83 3372.22 1710.83 C 3513.22 1639.83 3646.22 1567.83 3668.22 1549.83 C 3671.22 1547.83 3667.22 1540.83 3661.22 1534.83 C 3641.22 1514.83 3544.22 1550.83 3518.22 1587.83 C 3505.22 1606.83 3494.22 1614.83 3489.22 1607.83 C 3485.22 1599.83 3458.22 1607.83 3408.22 1630.83 C 3336.22 1663.83 3236.22 1698.83 3177.22 1711.83 C 3161.22 1714.83 3149.22 1723.83 3149.22 1730.83 C 3149.22 1738.83 3142.22 1747.83 3133.22 1750.83 C 3122.22 1754.83 3120.22 1760.83 3126.22 1769.83 C 3133.22 1777.83 3132.22 1790.83 3125.22 1809.83 L 3113.22 1836.83 L 3090.22 1796.83 C 3078.22 1774.83 3065.22 1756.83 3063.22 1756.83 C 3060.22 1756.83 3060.22 1760.83 3064.22 1765.83 C 3067.22 1771.83 3061.22 1779.83 3052.22 1785.83 C 3042.22 1791.83 3038.22 1796.83 3042.22 1796.83 C 3046.22 1796.83 3045.22 1804.83 3040.22 1814.83 C 3033.22 1827.83 3034.22 1837.83 3041.22 1844.83 C 3050.22 1853.83 3049.22 1856.83 3035.22 1856.83 C 3022.22 1856.83 3019.22 1861.83 3024.22 1876.83 C 3029.22 1890.83 3026.22 1896.83 3015.22 1896.83 C 3005.22 1896.83 2999.22 1905.83 2999.22 1920.83 C 2999.22 1933.83 2996.22 1953.83 2992.22 1963.83 C 2986.22 1978.83 2984.22 1976.83 2979.22 1951.83 C 2976.22 1935.83 2967.22 1922.83 2961.22 1924.83 C 2951.22 1926.83 2951.22 1921.83 2959.22 1906.83 C 2965.22 1894.83 2967.22 1876.83 2963.22 1863.83 C 2958.22 1851.83 2956.22 1838.83 2957.22 1833.83 C 2958.22 1829.83 2927.22 1856.83 2888.22 1893.83 C 2817.22 1962.83 2768.22 2038.83 2754.22 2106.83 C 2750.22 2126.83 2726.22 2165.83 2697.22 2199.83 C 2665.22 2236.83 2652.22 2258.83 2661.22 2260.83 C 2668.22 2263.83 2681.22 2267.83 2689.22 2269.83 C 2715.22 2278.83 2717.22 2277.83 2739.22 2246.83 Z M 1042.22 2254.83 C 992.217 2230.83 1023.22 2216.83 1137.22 2211.83 C 1183.22 2209.83 1223.22 2205.83 1226.22 2202.83 C 1229.22 2200.83 1203.22 2183.83 1169.22 2166.83 L 1106.22 2134.83 L 1056.22 2170.83 C 1017.22 2196.83 1001.22 2202.83 988.217 2195.83 C 977.217 2189.83 960.217 2190.83 943.217 2197.83 C 916.217 2207.83 893.217 2205.83 854.217 2189.83 C 826.217 2179.83 848.217 2211.83 889.217 2241.83 C 918.217 2262.83 933.217 2266.83 993.217 2265.83 C 1052.22 2265.83 1060.22 2263.83 1042.22 2254.83 Z M 385.217 2169.83 C 378.217 2161.83 345.217 2183.83 319.217 2212.83 C 296.217 2238.83 297.217 2237.83 341.217 2206.83 C 368.217 2188.83 387.217 2171.83 385.217 2169.83 Z M 3729.22 2181.83 C 3716.22 2167.83 3701.22 2156.83 3695.22 2156.83 C 3689.22 2157.83 3698.22 2168.83 3714.22 2181.83 C 3753.22 2213.83 3759.22 2213.83 3729.22 2181.83 Z M 982.217 2078.83 C 1019.22 2053.83 1049.22 2030.83 1049.22 2026.83 C 1049.22 2022.83 1031.22 2012.83 1009.22 2003.83 C 972.217 1989.83 969.217 1989.83 964.217 2005.83 C 961.217 2015.83 941.217 2037.83 920.217 2054.83 C 871.217 2093.83 829.217 2149.83 855.217 2139.83 C 868.217 2134.83 870.217 2136.83 864.217 2147.83 C 854.217 2162.83 859.217 2159.83 982.217 2078.83 Z M 1886.22 2085.83 C 1873.22 2055.83 1850.22 2017.83 1835.22 1999.83 C 1802.22 1959.83 1772.22 1892.83 1791.22 1898.83 C 1798.22 1901.83 1806.22 1911.83 1807.22 1922.83 C 1811.22 1942.83 1887.22 2026.83 1901.22 2026.83 C 1906.22 2026.83 1906.22 2018.83 1901.22 2009.83 C 1896.22 1999.83 1894.22 1985.83 1897.22 1977.83 C 1899.22 1969.83 1897.22 1966.83 1891.22 1970.83 C 1877.22 1978.83 1868.22 1951.83 1881.22 1938.83 C 1889.22 1930.83 1886.22 1929.83 1871.22 1933.83 C 1854.22 1937.83 1850.22 1934.83 1852.22 1917.83 C 1853.22 1905.83 1858.22 1896.83 1863.22 1896.83 C 1868.22 1896.83 1869.22 1893.83 1866.22 1889.83 C 1862.22 1885.83 1836.22 1883.83 1809.22 1885.83 C 1722.22 1889.83 1755.22 1840.83 1843.22 1834.83 C 1880.22 1831.83 1882.22 1830.83 1866.22 1815.83 C 1854.22 1802.83 1836.22 1799.83 1794.22 1802.83 C 1751.22 1804.83 1739.22 1802.83 1739.22 1790.83 C 1739.22 1782.83 1746.22 1776.83 1754.22 1776.83 C 1771.22 1776.83 1811.22 1756.83 1820.22 1742.83 C 1824.22 1737.83 1844.22 1737.83 1868.22 1743.83 C 1901.22 1752.83 1909.22 1751.83 1909.22 1741.83 C 1909.22 1724.83 1879.22 1714.83 1831.22 1716.83 C 1764.22 1719.83 1759.22 1718.83 1763.22 1694.83 C 1765.22 1675.83 1774.22 1670.83 1810.22 1666.83 C 1870.22 1659.83 1849.22 1650.83 1757.22 1641.83 C 1706.22 1636.83 1678.22 1629.83 1675.22 1620.83 C 1672.22 1612.83 1676.22 1606.83 1684.22 1606.83 C 1692.22 1606.83 1699.22 1602.83 1699.22 1596.83 C 1699.22 1591.83 1720.22 1586.83 1745.22 1586.83 C 1772.22 1586.83 1788.22 1582.83 1784.22 1576.83 C 1781.22 1570.83 1789.22 1566.83 1803.22 1566.83 C 1816.22 1566.83 1829.22 1561.83 1831.22 1554.83 C 1834.22 1545.83 1843.22 1545.83 1869.22 1554.83 C 1904.22 1567.83 1920.22 1563.83 1903.22 1546.83 C 1897.22 1540.83 1838.22 1534.83 1771.22 1533.83 C 1704.22 1532.83 1649.22 1528.83 1649.22 1524.83 C 1649.22 1510.83 1618.22 1516.83 1613.22 1531.83 C 1609.22 1539.83 1600.22 1546.83 1592.22 1546.83 C 1580.22 1546.83 1579.22 1549.83 1588.22 1560.83 C 1596.22 1569.83 1596.22 1576.83 1590.22 1580.83 C 1584.22 1584.83 1583.22 1594.83 1586.22 1603.83 C 1591.22 1615.83 1588.22 1618.83 1576.22 1613.83 C 1564.22 1609.83 1559.22 1614.83 1556.22 1634.83 C 1552.22 1660.83 1552.22 1660.83 1544.22 1639.83 C 1540.22 1626.83 1532.22 1616.83 1527.22 1616.83 C 1522.22 1616.83 1521.22 1607.83 1524.22 1596.83 C 1532.22 1572.83 1517.22 1570.83 1499.22 1591.83 C 1488.22 1604.83 1492.22 1613.83 1525.22 1648.83 C 1546.22 1670.83 1596.22 1712.83 1634.22 1741.83 C 1769.22 1842.83 1769.22 1868.83 1634.22 1790.83 C 1508.22 1718.83 1511.22 1719.83 1532.22 1743.83 C 1541.22 1754.83 1549.22 1768.83 1549.22 1775.83 C 1549.22 1804.83 1582.22 1846.83 1628.22 1875.83 C 1671.22 1901.83 1734.22 1973.83 1723.22 1985.83 C 1718.22 1990.83 1557.22 1852.83 1516.22 1807.83 C 1479.22 1766.83 1471.22 1739.83 1504.22 1766.83 C 1512.22 1773.83 1519.22 1774.83 1519.22 1768.83 C 1519.22 1755.83 1434.22 1678.83 1403.22 1664.83 C 1383.22 1655.83 1376.22 1655.83 1369.22 1666.83 C 1365.22 1673.83 1363.22 1685.83 1366.22 1693.83 C 1369.22 1700.83 1367.22 1706.83 1361.22 1706.83 C 1355.22 1706.83 1352.22 1724.83 1353.22 1746.83 C 1355.22 1784.83 1359.22 1789.83 1425.22 1832.83 C 1489.22 1874.83 1484.22 1864.83 1413.22 1808.83 C 1397.22 1796.83 1412.22 1804.83 1446.22 1826.83 C 1482.22 1849.83 1526.22 1889.83 1548.22 1920.83 C 1589.22 1975.83 1643.22 2026.83 1661.22 2026.83 C 1667.22 2026.83 1666.22 2019.83 1658.22 2009.83 C 1645.22 1992.83 1646.22 1992.83 1664.22 2006.83 C 1675.22 2014.83 1694.22 2028.83 1705.22 2039.83 C 1721.22 2052.83 1729.22 2054.83 1734.22 2046.83 C 1739.22 2038.83 1756.22 2049.83 1786.22 2078.83 C 1820.22 2110.83 1827.22 2114.83 1814.22 2093.83 C 1797.22 2067.83 1797.22 2066.83 1814.22 2073.83 C 1827.22 2077.83 1830.22 2076.83 1825.22 2068.83 C 1821.22 2061.83 1822.22 2056.83 1828.22 2056.83 C 1834.22 2056.83 1853.22 2076.83 1871.22 2100.83 C 1889.22 2124.83 1905.22 2143.83 1907.22 2141.83 C 1909.22 2140.83 1899.22 2114.83 1886.22 2085.83 Z M 3084.22 2036.83 C 3117.22 2005.83 3158.22 1970.83 3174.22 1959.83 C 3191.22 1947.83 3215.22 1919.83 3228.22 1895.83 L 3252.22 1852.83 L 3205.22 1886.83 C 3149.22 1927.83 2937.22 2152.83 2989.22 2116.83 C 3008.22 2103.83 3051.22 2067.83 3084.22 2036.83 Z M 275.217 2105.83 C 278.217 2099.83 289.217 2096.83 299.217 2099.83 C 308.217 2101.83 327.217 2097.83 340.217 2090.83 C 375.217 2070.83 385.217 2073.83 363.217 2097.83 C 344.217 2118.83 344.217 2118.83 369.217 2115.83 C 386.217 2112.83 393.217 2106.83 391.217 2094.83 C 389.217 2081.83 396.217 2078.83 420.217 2078.83 C 437.217 2079.83 454.217 2074.83 458.217 2067.83 C 463.217 2060.83 517.217 2030.83 580.217 1999.83 C 672.217 1954.83 690.217 1942.83 674.217 1936.83 C 659.217 1930.83 647.217 1935.83 628.217 1952.83 C 603.217 1976.83 559.217 1985.83 559.217 1966.83 C 559.217 1961.83 551.217 1956.83 542.217 1956.83 C 520.217 1956.83 418.217 1994.83 405.217 2007.83 C 399.217 2012.83 388.217 2016.83 380.217 2016.83 C 358.217 2016.83 255.217 2065.83 262.217 2072.83 C 265.217 2075.83 285.217 2068.83 308.217 2056.83 C 364.217 2028.83 359.217 2038.83 297.217 2081.83 C 268.217 2100.83 250.217 2116.83 256.217 2116.83 C 263.217 2116.83 271.217 2111.83 275.217 2105.83 Z M 3208.22 2007.83 C 3267.22 1969.83 3299.22 1955.83 3360.22 1942.83 C 3375.22 1939.83 3403.22 1916.83 3423.22 1892.83 C 3458.22 1849.83 3458.22 1847.83 3438.22 1841.83 C 3426.22 1837.83 3412.22 1839.83 3406.22 1845.83 C 3386.22 1865.83 3376.22 1856.83 3395.22 1835.83 C 3421.22 1806.83 3469.22 1783.83 3559.22 1757.83 C 3600.22 1744.83 3682.22 1711.83 3740.22 1681.83 C 3799.22 1652.83 3853.22 1626.83 3860.22 1624.83 C 3872.22 1620.83 3872.22 1617.83 3860.22 1602.83 C 3850.22 1590.83 3837.22 1587.83 3810.22 1592.83 C 3764.22 1601.83 3737.22 1614.83 3744.22 1627.83 C 3748.22 1632.83 3743.22 1636.83 3735.22 1636.83 C 3726.22 1636.83 3719.22 1643.83 3719.22 1652.83 C 3719.22 1661.83 3714.22 1664.83 3707.22 1660.83 C 3679.22 1642.83 3648.22 1653.83 3504.22 1728.83 C 3337.22 1815.83 3301.22 1842.83 3270.22 1903.83 C 3255.22 1934.83 3227.22 1960.83 3161.22 2005.83 C 3048.22 2083.83 3008.22 2124.83 3090.22 2079.83 C 3121.22 2062.83 3174.22 2030.83 3208.22 2007.83 Z M 624.217 2070.83 C 675.217 2015.83 641.217 2000.83 550.217 2037.83 C 522.217 2049.83 499.217 2062.83 499.217 2066.83 C 499.217 2074.83 554.217 2093.83 582.217 2095.83 C 592.217 2096.83 611.217 2084.83 624.217 2070.83 Z M 2679.22 2013.83 C 2717.22 1971.83 2725.22 1959.83 2704.22 1973.83 C 2663.22 2001.83 2597.22 2077.83 2615.22 2075.83 C 2620.22 2074.83 2649.22 2046.83 2679.22 2013.83 Z M 843.217 2044.83 C 861.217 2019.83 850.217 2000.83 825.217 2009.83 C 808.217 2016.83 802.217 2066.83 818.217 2066.83 C 824.217 2066.83 835.217 2056.83 843.217 2044.83 Z M 1219.22 2061.83 C 1219.22 2053.83 1087.22 1971.83 1027.22 1940.83 C 943.217 1898.83 987.217 1932.83 1106.22 2001.83 C 1232.22 2074.83 1219.22 2067.83 1219.22 2061.83 Z M 254.217 1946.83 C 333.217 1893.83 428.217 1846.83 456.217 1845.83 C 471.217 1845.83 499.217 1839.83 518.217 1832.83 C 559.217 1817.83 547.217 1805.83 472.217 1787.83 C 426.217 1776.83 413.217 1777.83 369.217 1791.83 C 304.217 1813.83 292.217 1802.83 351.217 1776.83 C 376.217 1765.83 399.217 1750.83 402.217 1742.83 C 405.217 1734.83 428.217 1721.83 452.217 1711.83 C 479.217 1701.83 499.217 1686.83 502.217 1675.83 C 505.217 1665.83 506.217 1656.83 504.217 1656.83 C 483.217 1656.83 348.217 1714.83 329.217 1731.83 C 315.217 1743.83 276.217 1772.83 242.217 1795.83 C 207.217 1818.83 179.217 1839.83 179.217 1842.83 C 179.217 1848.83 182.217 1846.83 257.217 1798.83 C 338.217 1747.83 331.217 1767.83 246.217 1830.83 C 173.217 1884.83 128.217 1928.83 179.217 1895.83 C 231.217 1862.83 244.217 1866.83 204.217 1903.83 C 176.217 1928.83 172.217 1935.83 192.217 1923.83 C 267.217 1877.83 270.217 1878.83 214.217 1930.83 C 159.217 1982.83 156.217 1986.83 184.217 1980.83 C 201.217 1976.83 232.217 1961.83 254.217 1946.83 Z M 450.217 1931.83 C 539.217 1907.83 584.217 1886.83 545.217 1886.83 C 514.217 1886.83 323.217 1954.83 351.217 1956.83 C 355.217 1956.83 399.217 1945.83 450.217 1931.83 Z M 599.217 1906.83 C 599.217 1901.83 595.217 1896.83 589.217 1896.83 C 584.217 1896.83 579.217 1901.83 579.217 1906.83 C 579.217 1912.83 584.217 1916.83 589.217 1916.83 C 595.217 1916.83 599.217 1912.83 599.217 1906.83 Z M 508.217 1875.83 C 531.217 1868.83 549.217 1859.83 549.217 1854.83 C 549.217 1842.83 515.217 1853.83 469.217 1878.83 C 450.217 1888.83 441.217 1895.83 450.217 1892.83 C 460.217 1890.83 485.217 1882.83 508.217 1875.83 Z M 1469.22 1891.83 C 1469.22 1889.83 1459.22 1882.83 1447.22 1876.83 C 1425.22 1865.83 1425.22 1866.83 1443.22 1880.83 C 1464.22 1897.83 1469.22 1899.83 1469.22 1891.83 Z M 3799.22 1870.83 L 3844.22 1857.83 L 3794.22 1863.83 C 3767.22 1866.83 3731.22 1874.83 3714.22 1882.83 L 3684.22 1895.83 L 3719.22 1889.83 C 3738.22 1885.83 3774.22 1877.83 3799.22 1870.83 Z M 875.217 1842.83 C 872.217 1828.83 864.217 1816.83 858.217 1816.83 C 852.217 1816.83 850.217 1823.83 853.217 1832.83 C 856.217 1841.83 859.217 1857.83 859.217 1869.83 C 859.217 1885.83 862.217 1887.83 870.217 1879.83 C 877.217 1872.83 879.217 1856.83 875.217 1842.83 Z M 669.217 1821.83 C 669.217 1808.83 632.217 1790.83 623.217 1798.83 C 621.217 1800.83 626.217 1812.83 635.217 1824.83 C 651.217 1847.83 669.217 1845.83 669.217 1821.83 Z M 2810.22 1819.83 L 2786.22 1846.83 L 2825.22 1846.83 C 2851.22 1846.83 2877.22 1837.83 2902.22 1821.83 C 2940.22 1795.83 2950.22 1776.83 2925.22 1776.83 C 2917.22 1776.83 2909.22 1770.83 2906.22 1764.83 C 2902.22 1749.83 2802.22 1793.83 2759.22 1828.83 C 2743.22 1840.83 2752.22 1838.83 2784.22 1820.83 L 2834.22 1792.83 L 2810.22 1819.83 Z M 979.217 1796.83 C 979.217 1786.83 918.217 1764.83 911.217 1771.83 C 908.217 1774.83 911.217 1782.83 917.217 1788.83 C 924.217 1795.83 929.217 1808.83 929.217 1818.83 C 929.217 1835.83 930.217 1835.83 954.217 1820.83 C 968.217 1811.83 979.217 1800.83 979.217 1796.83 Z M 2018.22 1804.83 C 2029.22 1774.83 2028.22 1774.83 1990.22 1787.83 C 1961.22 1797.83 1960.22 1799.83 1976.22 1812.83 C 2001.22 1831.83 2008.22 1829.83 2018.22 1804.83 Z M 205.217 1754.83 C 266.217 1714.83 282.217 1696.83 258.217 1696.83 C 252.217 1696.83 250.217 1687.83 254.217 1676.83 C 257.217 1665.83 258.217 1656.83 254.217 1656.83 C 245.217 1656.83 129.217 1736.83 129.217 1742.83 C 129.217 1745.83 135.217 1744.83 142.217 1740.83 C 148.217 1736.83 144.217 1744.83 132.217 1758.83 C 105.217 1787.83 102.217 1811.83 125.217 1802.83 C 134.217 1799.83 170.217 1777.83 205.217 1754.83 Z M 2210.22 1793.83 C 2209.22 1781.83 2195.22 1784.83 2191.22 1797.83 C 2188.22 1803.83 2192.22 1807.83 2199.22 1805.83 C 2205.22 1802.83 2210.22 1797.83 2210.22 1793.83 Z M 2159.22 1776.83 C 2159.22 1753.83 2147.22 1751.83 2116.22 1768.83 C 2095.22 1779.83 2095.22 1779.83 2114.22 1787.83 C 2147.22 1800.83 2159.22 1797.83 2159.22 1776.83 Z M 899.217 1765.83 C 899.217 1760.83 887.217 1756.83 872.217 1756.83 C 846.217 1756.83 846.217 1757.83 864.217 1770.83 C 884.217 1784.83 899.217 1782.83 899.217 1765.83 Z M 276.217 1743.83 C 294.217 1731.83 309.217 1717.83 309.217 1713.83 C 309.217 1704.83 264.217 1729.83 228.217 1758.83 C 208.217 1775.83 207.217 1777.83 224.217 1771.83 C 235.217 1768.83 259.217 1755.83 276.217 1743.83 Z M 1299.22 1751.83 C 1288.22 1738.83 1289.22 1737.83 1303.22 1742.83 C 1321.22 1749.83 1325.22 1736.83 1309.22 1720.83 C 1303.22 1714.83 1296.22 1692.83 1294.22 1671.83 C 1289.22 1632.83 1274.22 1606.83 1257.22 1606.83 C 1252.22 1606.83 1231.22 1618.83 1211.22 1633.83 C 1157.22 1673.83 1151.22 1679.83 1177.22 1671.83 C 1199.22 1665.83 1200.22 1666.83 1190.22 1685.83 C 1176.22 1710.83 1147.22 1712.83 1129.22 1691.83 C 1116.22 1675.83 1079.22 1670.83 1079.22 1684.83 C 1079.22 1690.83 1215.22 1738.83 1308.22 1765.83 C 1310.22 1766.83 1306.22 1759.83 1299.22 1751.83 Z M 705.217 1718.83 C 695.217 1709.83 572.217 1703.83 552.217 1710.83 C 537.217 1716.83 537.217 1718.83 549.217 1726.83 C 557.217 1732.83 560.217 1737.83 554.217 1738.83 C 549.217 1739.83 580.217 1742.83 624.217 1745.83 C 686.217 1750.83 705.217 1748.83 707.217 1738.83 C 709.217 1730.83 708.217 1722.83 705.217 1718.83 Z M 2324.22 1746.83 C 2321.22 1741.83 2306.22 1736.83 2291.22 1736.83 C 2276.22 1736.83 2255.22 1729.83 2245.22 1721.83 C 2214.22 1697.83 2189.22 1702.83 2189.22 1731.83 C 2189.22 1755.83 2191.22 1756.83 2260.22 1756.83 C 2304.22 1756.83 2328.22 1752.83 2324.22 1746.83 Z M 504.217 1726.83 C 498.217 1717.83 461.217 1724.83 454.217 1735.83 C 452.217 1739.83 463.217 1740.83 479.217 1738.83 C 496.217 1736.83 507.217 1730.83 504.217 1726.83 Z M 2104.22 1726.83 C 2107.22 1721.83 2121.22 1716.83 2135.22 1716.83 C 2157.22 1716.83 2159.22 1712.83 2159.22 1671.83 C 2159.22 1626.83 2159.22 1626.83 2123.22 1626.83 C 2100.22 1626.83 2090.22 1630.83 2095.22 1637.83 C 2098.22 1643.83 2095.22 1652.83 2088.22 1657.83 C 2069.22 1669.83 1992.22 1668.83 1984.22 1656.83 C 1981.22 1651.83 1968.22 1646.83 1957.22 1646.83 C 1936.22 1646.83 1936.22 1646.83 1959.22 1671.83 C 1972.22 1685.83 1992.22 1696.83 2005.22 1696.83 C 2017.22 1696.83 2029.22 1702.83 2032.22 1710.83 C 2035.22 1718.83 2048.22 1726.83 2061.22 1729.83 C 2074.22 1731.83 2087.22 1734.83 2091.22 1735.83 C 2095.22 1735.83 2101.22 1732.83 2104.22 1726.83 Z M 1963.22 1700.83 C 1967.22 1690.83 1964.22 1686.83 1957.22 1688.83 C 1942.22 1693.83 1934.22 1716.83 1947.22 1716.83 C 1952.22 1716.83 1960.22 1709.83 1963.22 1700.83 Z M 4018.22 1680.83 C 4025.22 1674.83 3990.22 1646.83 3974.22 1646.83 C 3965.22 1646.83 3961.22 1641.83 3965.22 1635.83 C 3969.22 1628.83 3966.22 1625.83 3958.22 1628.83 C 3950.22 1631.83 3944.22 1637.83 3943.22 1642.83 C 3943.22 1647.83 3939.22 1659.83 3936.22 1669.83 C 3918.22 1716.83 3917.22 1715.83 3967.22 1699.83 C 3993.22 1690.83 4016.22 1682.83 4018.22 1680.83 Z M 206.217 1663.83 C 246.217 1638.83 266.217 1619.83 262.217 1610.83 C 258.217 1599.83 251.217 1599.83 221.217 1612.83 C 200.217 1620.83 180.217 1632.83 174.217 1638.83 C 168.217 1644.83 174.217 1643.83 187.217 1636.83 C 230.217 1615.83 221.217 1633.83 175.217 1666.83 C 150.217 1683.83 129.217 1699.83 129.217 1702.83 C 129.217 1710.83 137.217 1706.83 206.217 1663.83 Z M 869.217 1671.83 C 862.217 1662.83 854.217 1658.83 852.217 1660.83 C 846.217 1666.83 872.217 1696.83 878.217 1690.83 C 880.217 1688.83 876.217 1680.83 869.217 1671.83 Z M 376.217 1678.83 C 385.217 1672.83 383.217 1667.83 369.217 1658.83 C 352.217 1647.83 349.217 1648.83 349.217 1666.83 C 349.217 1687.83 356.217 1691.83 376.217 1678.83 Z M 3543.22 1665.83 C 3574.22 1654.83 3601.22 1640.83 3604.22 1635.83 C 3610.22 1626.83 3521.22 1658.83 3489.22 1676.83 C 3464.22 1692.83 3485.22 1687.83 3543.22 1665.83 Z M 3197.22 1653.83 C 3199.22 1643.83 3194.22 1636.83 3185.22 1636.83 C 3176.22 1636.83 3169.22 1638.83 3169.22 1640.83 C 3169.22 1642.83 3166.22 1652.83 3163.22 1661.83 C 3158.22 1674.83 3161.22 1677.83 3175.22 1674.83 C 3185.22 1672.83 3195.22 1663.83 3197.22 1653.83 Z M 519.217 1635.83 C 559.217 1617.83 562.217 1614.83 546.217 1604.83 C 533.217 1597.83 524.217 1597.83 516.217 1605.83 C 500.217 1621.83 479.217 1619.83 479.217 1601.83 C 479.217 1559.83 427.217 1604.83 424.217 1649.83 C 422.217 1671.83 446.217 1667.83 519.217 1635.83 Z M 680.217 1656.83 C 707.217 1656.83 719.217 1652.83 719.217 1642.83 C 719.217 1623.83 697.217 1616.83 641.217 1616.83 C 606.217 1616.83 591.217 1621.83 582.217 1635.83 C 567.217 1660.83 577.217 1669.83 613.217 1662.83 C 629.217 1659.83 659.217 1656.83 680.217 1656.83 Z M 1909.22 1635.83 C 1909.22 1611.83 1906.22 1605.83 1893.22 1610.83 C 1884.22 1613.83 1873.22 1616.83 1868.22 1616.83 C 1863.22 1616.83 1859.22 1625.83 1859.22 1637.83 C 1859.22 1648.83 1863.22 1655.83 1868.22 1651.83 C 1873.22 1648.83 1880.22 1650.83 1884.22 1656.83 C 1896.22 1676.83 1909.22 1665.83 1909.22 1635.83 Z M 2230.22 1656.83 C 2236.22 1656.83 2237.22 1652.83 2234.22 1646.83 C 2224.22 1630.83 2189.22 1634.83 2189.22 1652.83 C 2189.22 1663.83 2194.22 1666.83 2205.22 1662.83 C 2214.22 1659.83 2225.22 1656.83 2230.22 1656.83 Z M 3300.22 1650.83 C 3330.22 1641.83 3384.22 1619.83 3421.22 1600.83 C 3485.22 1568.83 3488.22 1565.83 3479.22 1541.83 C 3474.22 1527.83 3473.22 1516.83 3477.22 1515.83 C 3481.22 1515.83 3474.22 1511.83 3462.22 1506.83 C 3449.22 1501.83 3439.22 1490.83 3439.22 1481.83 C 3439.22 1473.83 3433.22 1466.83 3425.22 1466.83 C 3416.22 1466.83 3406.22 1486.83 3398.22 1516.83 C 3383.22 1573.83 3369.22 1582.83 3369.22 1534.83 C 3369.22 1516.83 3364.22 1494.83 3358.22 1486.83 C 3349.22 1473.83 3348.22 1474.83 3353.22 1488.83 C 3356.22 1498.83 3354.22 1508.83 3348.22 1511.83 C 3343.22 1515.83 3341.22 1521.83 3344.22 1526.83 C 3347.22 1531.83 3344.22 1547.83 3338.22 1563.83 L 3327.22 1591.83 L 3317.22 1566.83 C 3308.22 1542.83 3307.22 1542.83 3296.22 1561.83 C 3289.22 1572.83 3278.22 1581.83 3272.22 1581.83 C 3265.22 1581.83 3259.22 1585.83 3260.22 1590.83 C 3260.22 1595.83 3255.22 1602.83 3248.22 1607.83 C 3233.22 1616.83 3224.22 1666.83 3237.22 1666.83 C 3242.22 1666.83 3270.22 1659.83 3300.22 1650.83 Z M 2279.22 1647.83 C 2279.22 1641.83 2275.22 1634.83 2269.22 1631.83 C 2264.22 1628.83 2259.22 1632.83 2259.22 1640.83 C 2259.22 1649.83 2264.22 1656.83 2269.22 1656.83 C 2275.22 1656.83 2279.22 1652.83 2279.22 1647.83 Z M 1079.22 1627.83 C 1079.22 1614.83 1017.22 1556.83 1003.22 1556.83 C 996.217 1556.83 987.217 1561.83 984.217 1567.83 C 979.217 1574.83 970.217 1570.83 958.217 1557.83 C 937.217 1535.83 926.217 1533.83 894.217 1546.83 L 874.217 1554.83 L 894.217 1561.83 C 932.217 1576.83 939.217 1586.83 928.217 1608.83 C 918.217 1627.83 919.217 1628.83 954.217 1622.83 C 979.217 1617.83 989.217 1618.83 984.217 1625.83 C 980.217 1632.83 995.217 1636.83 1028.22 1636.83 C 1056.22 1636.83 1079.22 1632.83 1079.22 1627.83 Z M 1136.22 1604.83 C 1133.22 1597.83 1131.22 1602.83 1131.22 1616.83 C 1131.22 1630.83 1133.22 1635.83 1136.22 1629.83 C 1138.22 1622.83 1138.22 1610.83 1136.22 1604.83 Z M 880.217 1606.83 C 886.217 1606.83 887.217 1602.83 884.217 1596.83 C 874.217 1580.83 839.217 1584.83 839.217 1602.83 C 839.217 1613.83 844.217 1616.83 855.217 1612.83 C 864.217 1609.83 875.217 1606.83 880.217 1606.83 Z M 719.217 1581.83 C 719.217 1559.83 715.217 1556.83 682.217 1555.83 C 661.217 1554.83 641.217 1554.83 637.217 1555.83 C 633.217 1555.83 614.217 1549.83 593.217 1540.83 C 563.217 1527.83 555.217 1527.83 548.217 1538.83 C 534.217 1560.83 537.217 1563.83 587.217 1575.83 C 613.217 1582.83 648.217 1591.83 664.217 1596.83 C 713.217 1609.83 719.217 1607.83 719.217 1581.83 Z M 1096.22 1581.83 C 1092.22 1573.83 1082.22 1566.83 1073.22 1566.83 C 1057.22 1566.83 1057.22 1568.83 1074.22 1586.83 C 1094.22 1608.83 1105.22 1606.83 1096.22 1581.83 Z M 2052.22 1586.83 C 2057.22 1582.83 2080.22 1581.83 2105.22 1584.83 C 2141.22 1588.83 2149.22 1586.83 2149.22 1572.83 C 2149.22 1555.83 2136.22 1553.83 2009.22 1554.83 C 1952.22 1554.83 1944.22 1557.83 1941.22 1574.83 C 1939.22 1589.83 1944.22 1596.83 1961.22 1598.83 C 1989.22 1603.83 2041.22 1596.83 2052.22 1586.83 Z M 2299.22 1576.83 C 2299.22 1563.83 2288.22 1563.83 2269.22 1576.83 C 2257.22 1584.83 2258.22 1586.83 2277.22 1586.83 C 2289.22 1586.83 2299.22 1582.83 2299.22 1576.83 Z M 479.217 1566.83 C 479.217 1553.83 468.217 1553.83 449.217 1566.83 C 437.217 1574.83 438.217 1576.83 457.217 1576.83 C 469.217 1576.83 479.217 1572.83 479.217 1566.83 Z M 2234.22 1566.83 C 2238.22 1560.83 2229.22 1556.83 2214.22 1556.83 C 2199.22 1556.83 2190.22 1560.83 2194.22 1566.83 C 2197.22 1572.83 2206.22 1576.83 2214.22 1576.83 C 2222.22 1576.83 2231.22 1572.83 2234.22 1566.83 Z M 3269.22 1562.83 C 3269.22 1559.83 3265.22 1554.83 3259.22 1551.83 C 3254.22 1548.83 3249.22 1550.83 3249.22 1555.83 C 3249.22 1561.83 3254.22 1566.83 3259.22 1566.83 C 3265.22 1566.83 3269.22 1564.83 3269.22 1562.83 Z M 3824.22 1531.83 C 3841.22 1524.83 3847.22 1517.83 3839.22 1517.83 C 3831.22 1517.83 3811.22 1523.83 3794.22 1531.83 C 3778.22 1538.83 3771.22 1545.83 3779.22 1545.83 C 3787.22 1545.83 3808.22 1539.83 3824.22 1531.83 Z M 709.217 1512.83 C 709.217 1501.83 690.217 1497.83 684.217 1506.83 C 681.217 1511.83 685.217 1516.83 693.217 1516.83 C 702.217 1516.83 709.217 1514.83 709.217 1512.83 Z M 2104.22 1462.83 C 2121.22 1461.83 2092.22 1458.83 2042.22 1458.83 C 1991.22 1457.83 1949.22 1459.83 1949.22 1464.83 C 1949.22 1470.83 2032.22 1470.83 2104.22 1462.83 Z M 1779.22 1449.83 C 1693.22 1436.83 1686.22 1434.83 1699.22 1426.83 C 1712.22 1418.83 1692.22 1412.83 1614.22 1403.83 C 1576.22 1398.83 1716.22 1392.83 1784.22 1395.83 C 1824.22 1397.83 1838.22 1393.83 1853.22 1377.83 L 1872.22 1356.83 L 1793.22 1354.83 C 1750.22 1353.83 1731.22 1351.83 1751.22 1349.83 C 1780.22 1346.83 1787.22 1341.83 1782.22 1329.83 C 1778.22 1318.83 1780.22 1315.83 1787.22 1320.83 C 1803.22 1330.83 1890.22 1316.83 1883.22 1305.83 C 1880.22 1300.83 1833.22 1296.83 1779.22 1296.83 C 1681.22 1296.83 1641.22 1284.83 1700.22 1272.83 C 1718.22 1269.83 1759.22 1266.83 1793.22 1266.83 C 1845.22 1265.83 1889.22 1251.83 1889.22 1235.83 C 1889.22 1229.83 1734.22 1244.83 1644.22 1259.83 L 1564.22 1272.83 L 1604.22 1283.83 C 1642.22 1293.83 1640.22 1294.83 1559.22 1296.83 C 1494.22 1298.83 1483.22 1300.83 1514.22 1305.83 C 1536.22 1309.83 1469.22 1311.83 1364.22 1310.83 C 1260.22 1309.83 1192.22 1310.83 1214.22 1312.83 C 1236.22 1314.83 1331.22 1323.83 1424.22 1332.83 C 1661.22 1354.83 1692.22 1367.83 1499.22 1363.83 C 1414.22 1361.83 1370.22 1361.83 1402.22 1363.83 C 1448.22 1366.83 1460.22 1370.83 1455.22 1381.83 C 1450.22 1395.83 1455.22 1396.83 1539.22 1409.83 C 1553.22 1412.83 1519.22 1414.83 1464.22 1415.83 C 1343.22 1417.83 1314.22 1423.83 1330.22 1442.83 C 1339.22 1453.83 1387.22 1456.83 1573.22 1455.83 C 1700.22 1454.83 1793.22 1452.83 1779.22 1449.83 Z M 1889.22 1431.83 C 1889.22 1406.83 1889.22 1406.83 1859.22 1421.83 C 1843.22 1430.83 1829.22 1441.83 1829.22 1446.83 C 1829.22 1452.83 1843.22 1456.83 1859.22 1456.83 C 1884.22 1456.83 1889.22 1452.83 1889.22 1431.83 Z M 2679.22 1445.83 C 2667.22 1437.83 2668.22 1436.83 2684.22 1440.83 C 2695.22 1442.83 2747.22 1447.83 2799.22 1450.83 C 2877.22 1455.83 2889.22 1454.83 2864.22 1444.83 C 2837.22 1434.83 2836.22 1432.83 2854.22 1425.83 C 2865.22 1421.83 2926.22 1417.83 2989.22 1416.83 C 3052.22 1415.83 3145.22 1411.83 3194.22 1407.83 C 3266.22 1401.83 3233.22 1398.83 3027.22 1395.83 C 2572.22 1389.83 2584.22 1388.83 2584.22 1411.83 C 2584.22 1425.83 2595.22 1434.83 2624.22 1442.83 C 2646.22 1449.83 2671.22 1455.83 2679.22 1455.83 C 2692.22 1456.83 2692.22 1455.83 2679.22 1445.83 Z M 2144.22 1406.83 C 2147.22 1401.83 2143.22 1396.83 2135.22 1396.83 C 2126.22 1396.83 2119.22 1401.83 2119.22 1406.83 C 2119.22 1412.83 2123.22 1416.83 2128.22 1416.83 C 2134.22 1416.83 2141.22 1412.83 2144.22 1406.83 Z M 2539.22 1408.83 C 2539.22 1383.83 2492.22 1375.83 2344.22 1377.83 C 2198.22 1379.83 2190.22 1380.83 2200.22 1398.83 C 2209.22 1414.83 2225.22 1416.83 2374.22 1416.83 C 2465.22 1416.83 2539.22 1413.83 2539.22 1408.83 Z M 2097.22 1367.83 C 2101.22 1356.83 2092.22 1354.83 2054.22 1359.83 C 2028.22 1363.83 1996.22 1366.83 1983.22 1366.83 C 1966.22 1366.83 1959.22 1372.83 1959.22 1384.83 C 1959.22 1401.83 1964.22 1402.83 2026.22 1392.83 C 2066.22 1385.83 2094.22 1375.83 2097.22 1367.83 Z M 2122.22 1305.83 C 2119.22 1297.83 2125.22 1284.83 2133.22 1277.83 C 2153.22 1260.83 2154.22 1236.83 2134.22 1236.83 C 2126.22 1236.83 2119.22 1241.83 2119.22 1247.83 C 2119.22 1263.83 2053.22 1286.83 2004.22 1286.83 C 1973.22 1286.83 1959.22 1290.83 1959.22 1299.83 C 1959.22 1323.83 1971.22 1326.83 2049.22 1323.83 C 2113.22 1321.83 2125.22 1318.83 2122.22 1305.83 Z M 3799.22 1322.83 C 3799.22 1320.83 3783.22 1308.83 3763.22 1297.83 C 3743.22 1285.83 3729.22 1273.83 3731.22 1270.83 C 3736.22 1266.83 3803.22 1278.83 3845.22 1291.83 C 3863.22 1297.83 3863.22 1297.83 3844.22 1281.83 C 3824.22 1264.83 3825.22 1264.83 3852.22 1270.83 L 3880.22 1277.83 L 3864.22 1245.83 L 3847.22 1214.83 L 3681.22 1220.83 C 3589.22 1224.83 3480.22 1229.83 3439.22 1233.83 L 3364.22 1239.83 L 3399.22 1254.83 C 3424.22 1264.83 3455.22 1267.83 3511.22 1263.83 C 3585.22 1257.83 3592.22 1258.83 3661.22 1291.83 C 3721.22 1320.83 3799.22 1337.83 3799.22 1322.83 Z M 1466.22 1290.83 C 1463.22 1287.83 1454.22 1286.83 1447.22 1289.83 C 1439.22 1292.83 1442.22 1295.83 1453.22 1295.83 C 1464.22 1296.83 1470.22 1293.83 1466.22 1290.83 Z M 2387.22 1289.83 C 2355.22 1287.83 2303.22 1287.83 2272.22 1289.83 C 2240.22 1291.83 2266.22 1292.83 2329.22 1292.83 C 2392.22 1292.83 2418.22 1291.83 2387.22 1289.83 Z M 507.217 1269.83 C 492.217 1267.83 465.217 1267.83 447.217 1269.83 C 429.217 1271.83 441.217 1273.83 474.217 1273.83 C 507.217 1273.83 522.217 1271.83 507.217 1269.83 Z M 962.217 1269.83 C 949.217 1267.83 927.217 1267.83 912.217 1269.83 C 896.217 1271.83 907.217 1273.83 934.217 1273.83 C 962.217 1273.83 974.217 1271.83 962.217 1269.83 Z M 1987.22 1258.83 C 1989.22 1251.83 1981.22 1246.83 1970.22 1246.83 C 1949.22 1246.83 1943.22 1257.83 1956.22 1270.83 C 1965.22 1279.83 1982.22 1272.83 1987.22 1258.83 Z M 2438.22 1269.83 C 2489.22 1266.83 2525.22 1260.83 2518.22 1255.83 C 2511.22 1251.83 2500.22 1250.83 2493.22 1253.83 C 2481.22 1258.83 2479.22 1240.83 2491.22 1221.83 C 2498.22 1209.83 2474.22 1185.83 2463.22 1194.83 C 2459.22 1198.83 2459.22 1195.83 2464.22 1187.83 C 2469.22 1179.83 2481.22 1176.83 2500.22 1180.83 C 2522.22 1184.83 2529.22 1182.83 2529.22 1171.83 C 2529.22 1161.83 2519.22 1156.83 2499.22 1156.83 C 2467.22 1156.83 2466.22 1155.83 2475.22 1132.83 C 2480.22 1120.83 2485.22 1119.83 2500.22 1127.83 C 2523.22 1139.83 2525.22 1129.83 2502.22 1104.83 C 2482.22 1082.83 2443.22 1081.83 2422.22 1102.83 C 2409.22 1114.83 2408.22 1119.83 2419.22 1126.83 C 2428.22 1132.83 2427.22 1136.83 2413.22 1145.83 C 2397.22 1154.83 2396.22 1157.83 2409.22 1165.83 C 2421.22 1174.83 2421.22 1176.83 2406.22 1182.83 C 2381.22 1191.83 2385.22 1224.83 2412.22 1229.83 C 2425.22 1232.83 2420.22 1234.83 2397.22 1235.83 C 2370.22 1236.83 2359.22 1232.83 2358.22 1221.83 C 2357.22 1213.83 2356.22 1200.83 2355.22 1194.83 C 2354.22 1187.83 2351.22 1178.83 2347.22 1175.83 C 2342.22 1172.83 2336.22 1148.83 2333.22 1121.83 C 2330.22 1093.83 2321.22 1067.83 2311.22 1059.83 C 2299.22 1051.83 2298.22 1047.83 2307.22 1046.83 C 2316.22 1046.83 2318.22 1039.83 2314.22 1026.83 C 2310.22 1015.83 2312.22 1006.83 2318.22 1006.83 C 2324.22 1006.83 2329.22 1002.83 2329.22 996.834 C 2329.22 991.834 2322.22 986.834 2314.22 986.834 C 2306.22 986.834 2299.22 982.834 2299.22 976.834 C 2299.22 971.834 2308.22 966.834 2320.22 966.834 C 2331.22 966.834 2337.22 962.834 2334.22 956.834 C 2322.22 937.834 2298.22 946.834 2254.22 988.834 L 2209.22 1031.83 L 2209.22 1108.83 C 2209.22 1175.83 2211.22 1186.83 2227.22 1187.83 C 2243.22 1188.83 2243.22 1189.83 2227.22 1193.83 C 2214.22 1196.83 2209.22 1208.83 2209.22 1237.83 L 2209.22 1276.83 L 2277.22 1276.83 C 2315.22 1276.83 2387.22 1273.83 2438.22 1269.83 Z M 662.217 1259.83 C 649.217 1257.83 629.217 1257.83 617.217 1259.83 C 604.217 1261.83 614.217 1263.83 639.217 1263.83 C 664.217 1263.83 674.217 1261.83 662.217 1259.83 Z M 1199.22 1255.83 C 985.217 1244.83 969.217 1239.83 1150.22 1237.83 C 1396.22 1235.83 1659.22 1223.83 1653.22 1214.83 C 1650.22 1210.83 1579.22 1206.83 1494.22 1206.83 C 1402.22 1206.83 1338.22 1202.83 1334.22 1196.83 C 1331.22 1191.83 1300.22 1186.83 1266.22 1186.83 C 1229.22 1186.83 1209.22 1182.83 1217.22 1177.83 C 1232.22 1168.83 1181.22 1157.83 1114.22 1155.83 C 1065.22 1154.83 1076.22 1149.83 1154.22 1136.83 C 1204.22 1129.83 1190.22 1128.83 1079.22 1131.83 C 1001.22 1133.83 959.217 1131.83 979.217 1126.83 C 1014.22 1119.83 1014.22 1119.83 984.217 1117.83 C 968.217 1116.83 944.217 1113.83 932.217 1110.83 C 909.217 1104.83 899.217 1118.83 883.217 1181.83 L 877.217 1205.83 L 1021.22 1201.83 L 1164.22 1197.83 L 1049.22 1206.83 C 986.217 1211.83 918.217 1217.83 899.217 1218.83 C 876.217 1220.83 864.217 1226.83 864.217 1236.83 C 864.217 1248.83 888.217 1252.83 999.217 1256.83 C 1073.22 1259.83 1186.22 1262.83 1249.22 1262.83 C 1350.22 1263.83 1345.22 1262.83 1199.22 1255.83 Z M 3099.22 1247.83 C 3226.22 1241.83 3197.22 1240.83 2940.22 1240.83 C 2768.22 1241.83 2634.22 1242.83 2643.22 1244.83 C 2652.22 1246.83 2659.22 1251.83 2659.22 1255.83 C 2659.22 1263.83 2805.22 1260.83 3099.22 1247.83 Z M 647.217 1239.83 C 637.217 1237.83 621.217 1237.83 612.217 1239.83 C 602.217 1242.83 610.217 1244.83 629.217 1244.83 C 648.217 1244.83 656.217 1242.83 647.217 1239.83 Z M 559.217 1216.83 C 559.217 1211.83 555.217 1206.83 549.217 1206.83 C 544.217 1206.83 539.217 1195.83 539.217 1182.83 C 539.217 1169.83 532.217 1153.83 524.217 1146.83 C 516.217 1139.83 512.217 1130.83 515.217 1124.83 C 518.217 1119.83 509.217 1118.83 492.217 1122.83 C 455.217 1131.83 451.217 1135.83 469.217 1146.83 C 480.217 1153.83 469.217 1156.83 434.217 1158.83 C 390.217 1159.83 388.217 1160.83 422.217 1163.83 L 460.217 1167.83 L 437.217 1186.83 C 417.217 1203.83 416.217 1207.83 429.217 1216.83 C 449.217 1229.83 559.217 1229.83 559.217 1216.83 Z M 673.217 1216.83 C 689.217 1216.83 691.217 1211.83 686.217 1172.83 C 682.217 1147.83 673.217 1112.83 665.217 1094.83 C 651.217 1063.83 650.217 1062.83 644.217 1084.83 C 640.217 1096.83 631.217 1106.83 624.217 1106.83 C 610.217 1106.83 594.217 1200.83 605.217 1217.83 C 608.217 1223.83 621.217 1225.83 633.217 1222.83 C 644.217 1219.83 662.217 1216.83 673.217 1216.83 Z M 2032.22 1205.83 C 2040.22 1211.83 2052.22 1208.83 2067.22 1196.83 C 2080.22 1185.83 2085.22 1175.83 2079.22 1171.83 C 2074.22 1168.83 2069.22 1170.83 2069.22 1176.83 C 2069.22 1183.83 2061.22 1185.83 2050.22 1181.83 C 2039.22 1178.83 2028.22 1180.83 2025.22 1185.83 C 2021.22 1191.83 2011.22 1192.83 2001.22 1189.83 C 1986.22 1183.83 1986.22 1184.83 1999.22 1200.83 C 2008.22 1212.83 2015.22 1214.83 2017.22 1207.83 C 2020.22 1199.83 2025.22 1198.83 2032.22 1205.83 Z M 2824.22 1206.83 C 2778.22 1202.83 2830.22 1200.83 2949.22 1202.83 L 3154.22 1204.83 L 3009.22 1196.83 C 2831.22 1185.83 2794.22 1179.83 2879.22 1177.83 C 2915.22 1177.83 2974.22 1173.83 3011.22 1170.83 C 3074.22 1164.83 3078.22 1162.83 3067.22 1143.83 C 3057.22 1124.83 3050.22 1123.83 2915.22 1128.83 C 2830.22 1132.83 2792.22 1131.83 2819.22 1126.83 C 2844.22 1121.83 2898.22 1117.83 2939.22 1117.83 C 3033.22 1116.83 3059.22 1109.83 3059.22 1085.83 C 3059.22 1073.83 3054.22 1069.83 3044.22 1072.83 C 3023.22 1080.83 3025.22 1059.83 3047.22 1047.83 C 3063.22 1037.83 3063.22 1037.83 3047.22 1036.83 C 3028.22 1036.83 3022.22 1011.83 3039.22 1001.83 C 3055.22 991.834 3051.22 963.834 3034.22 969.834 C 3013.22 978.834 3006.22 959.834 3026.22 947.834 C 3041.22 938.834 3040.22 937.834 3015.22 936.834 C 2991.22 936.834 2988.22 934.834 2999.22 921.834 C 3006.22 913.834 3007.22 906.834 3001.22 906.834 C 2996.22 906.834 2977.22 903.834 2960.22 900.834 C 2939.22 896.834 2929.22 897.834 2929.22 905.834 C 2929.22 912.834 2934.22 914.834 2939.22 911.834 C 2945.22 908.834 2949.22 912.834 2949.22 920.834 C 2949.22 929.834 2945.22 936.834 2939.22 936.834 C 2934.22 936.834 2932.22 943.834 2935.22 951.834 C 2939.22 959.834 2936.22 966.834 2930.22 966.834 C 2924.22 966.834 2919.22 973.834 2919.22 982.834 C 2919.22 1009.83 2900.22 987.834 2888.22 946.834 C 2881.22 924.834 2872.22 906.834 2867.22 906.834 C 2862.22 906.834 2859.22 898.834 2861.22 889.834 C 2864.22 874.834 2857.22 872.834 2821.22 874.834 C 2790.22 877.834 2772.22 872.834 2758.22 860.834 C 2741.22 845.834 2736.22 844.834 2729.22 856.834 C 2725.22 863.834 2723.22 879.834 2725.22 890.834 C 2728.22 902.834 2731.22 916.834 2733.22 923.834 C 2734.22 930.834 2738.22 939.834 2742.22 942.834 C 2755.22 956.834 2749.22 964.834 2729.22 959.834 C 2713.22 955.834 2710.22 957.834 2715.22 972.834 C 2718.22 983.834 2717.22 987.834 2712.22 980.834 C 2700.22 965.834 2669.22 955.834 2669.22 966.834 C 2669.22 972.834 2660.22 976.834 2650.22 976.834 C 2624.22 976.834 2599.22 986.834 2599.22 996.834 C 2599.22 1001.83 2614.22 1002.83 2632.22 1000.83 C 2652.22 996.834 2671.22 1000.83 2684.22 1010.83 C 2703.22 1025.83 2703.22 1025.83 2673.22 1026.83 C 2655.22 1026.83 2631.22 1035.83 2618.22 1046.83 L 2594.22 1066.83 L 2632.22 1060.83 C 2663.22 1055.83 2669.22 1057.83 2669.22 1071.83 C 2669.22 1086.83 2671.22 1087.83 2686.22 1075.83 C 2701.22 1063.83 2702.22 1063.83 2696.22 1078.83 C 2693.22 1088.83 2694.22 1098.83 2699.22 1101.83 C 2705.22 1105.83 2709.22 1114.83 2709.22 1121.83 C 2709.22 1132.83 2698.22 1135.83 2669.22 1132.83 C 2622.22 1128.83 2612.22 1144.83 2648.22 1168.83 L 2674.22 1186.83 L 2647.22 1186.83 C 2632.22 1186.83 2617.22 1191.83 2613.22 1198.83 C 2608.22 1206.83 2615.22 1207.83 2638.22 1203.83 C 2658.22 1199.83 2668.22 1200.83 2664.22 1206.83 C 2660.22 1212.83 2702.22 1215.83 2781.22 1214.83 C 2901.22 1212.83 2902.22 1212.83 2824.22 1206.83 Z M 1882.22 1199.83 C 1869.22 1197.83 1847.22 1197.83 1832.22 1199.83 C 1816.22 1201.83 1827.22 1203.83 1854.22 1203.83 C 1882.22 1203.83 1894.22 1201.83 1882.22 1199.83 Z M 3277.22 1189.83 C 3262.22 1187.83 3235.22 1187.83 3217.22 1189.83 C 3199.22 1191.83 3211.22 1193.83 3244.22 1193.83 C 3277.22 1193.83 3292.22 1191.83 3277.22 1189.83 Z M 3066.22 1180.83 C 3063.22 1177.83 3054.22 1176.83 3047.22 1179.83 C 3039.22 1182.83 3042.22 1185.83 3053.22 1185.83 C 3064.22 1186.83 3070.22 1183.83 3066.22 1180.83 Z M 1892.22 1134.83 C 1886.22 1090.83 1817.22 996.834 1792.22 996.834 C 1785.22 996.834 1772.22 1008.83 1762.22 1022.83 C 1706.22 1102.83 1692.22 1113.83 1633.22 1119.83 C 1601.22 1122.83 1573.22 1129.83 1570.22 1135.83 C 1566.22 1140.83 1541.22 1146.83 1514.22 1149.83 C 1486.22 1151.83 1550.22 1154.83 1654.22 1155.83 C 1767.22 1157.83 1832.22 1161.83 1814.22 1166.83 C 1789.22 1172.83 1794.22 1174.83 1842.22 1175.83 L 1899.22 1176.83 L 1892.22 1134.83 Z M 3222.22 1169.83 C 3215.22 1167.83 3201.22 1167.83 3192.22 1169.83 C 3182.22 1172.83 3188.22 1174.83 3204.22 1174.83 C 3221.22 1174.83 3228.22 1172.83 3222.22 1169.83 Z M 3244.22 1149.83 C 3307.22 1144.83 3318.22 1141.83 3294.22 1135.83 C 3278.22 1131.83 3311.22 1130.83 3369.22 1131.83 C 3469.22 1135.83 3471.22 1134.83 3404.22 1126.83 C 3366.22 1121.83 3279.22 1119.83 3212.22 1123.83 C 3103.22 1128.83 3089.22 1130.83 3089.22 1146.83 C 3089.22 1161.83 3096.22 1163.83 3127.22 1160.83 C 3147.22 1158.83 3200.22 1153.83 3244.22 1149.83 Z M 2119.22 1133.83 C 2119.22 1128.83 2126.22 1126.83 2134.22 1130.83 C 2146.22 1134.83 2148.22 1127.83 2143.22 1088.83 C 2138.22 1052.83 2130.22 1035.83 2106.22 1014.83 C 2069.22 981.834 2058.22 979.834 2041.22 1006.83 C 2034.22 1017.83 2022.22 1026.83 2015.22 1026.83 C 1996.22 1026.83 1959.22 1073.83 1959.22 1096.83 C 1959.22 1110.83 1967.22 1114.83 1992.22 1113.83 C 2009.22 1113.83 2038.22 1119.83 2054.22 1128.83 C 2087.22 1144.83 2119.22 1147.83 2119.22 1133.83 Z M 3462.22 1109.83 C 3449.22 1107.83 3429.22 1107.83 3417.22 1109.83 C 3404.22 1111.83 3414.22 1113.83 3439.22 1113.83 C 3464.22 1113.83 3474.22 1111.83 3462.22 1109.83 Z M 529.217 1096.83 C 537.217 1091.83 540.217 1086.83 534.217 1085.83 C 490.217 1081.83 459.217 1082.83 459.217 1087.83 C 459.217 1107.83 503.217 1113.83 529.217 1096.83 Z M 1667.22 1094.83 C 1664.22 1087.83 1652.22 1076.83 1640.22 1070.83 C 1627.22 1063.83 1600.22 1042.83 1580.22 1022.83 C 1560.22 1002.83 1536.22 986.834 1528.22 986.834 C 1519.22 986.834 1491.22 1002.83 1465.22 1023.83 L 1419.22 1059.83 L 1373.22 1026.83 C 1330.22 996.834 1325.22 994.834 1289.22 1005.83 C 1234.22 1021.83 1159.22 1019.83 1124.22 998.834 C 1100.22 984.834 1076.22 982.834 1002.22 984.834 L 909.217 987.834 L 901.217 1019.83 C 896.217 1037.83 894.217 1054.83 896.217 1059.83 C 898.217 1063.83 991.217 1067.83 1102.22 1067.83 C 1213.22 1068.83 1291.22 1071.83 1274.22 1073.83 C 1258.22 1074.83 1215.22 1079.83 1179.22 1082.83 C 1051.22 1095.83 1152.22 1105.83 1412.22 1105.83 C 1615.22 1106.83 1670.22 1103.83 1667.22 1094.83 Z M 3514.22 1081.83 C 3640.22 1072.83 3745.22 1063.83 3748.22 1061.83 C 3755.22 1054.83 3711.22 1055.83 3402.22 1068.83 C 3170.22 1077.83 3119.22 1082.83 3119.22 1094.83 C 3119.22 1105.83 3134.22 1107.83 3202.22 1102.83 C 3247.22 1098.83 3387.22 1089.83 3514.22 1081.83 Z M 525.217 1054.83 C 507.217 1044.83 486.217 1052.83 494.217 1066.83 C 497.217 1070.83 509.217 1072.83 520.217 1069.83 C 539.217 1064.83 539.217 1062.83 525.217 1054.83 Z M 3439.22 1045.83 C 3497.22 1040.83 3569.22 1035.83 3599.22 1035.83 C 3646.22 1034.83 3650.22 1032.83 3624.22 1025.83 C 3600.22 1019.83 3606.22 1018.83 3652.22 1019.83 C 3683.22 1020.83 3709.22 1019.83 3709.22 1016.83 C 3709.22 997.834 3677.22 986.834 3625.22 984.834 L 3564.22 982.834 L 3617.22 979.834 C 3645.22 977.834 3669.22 971.834 3669.22 967.834 C 3669.22 955.834 3559.22 831.834 3551.22 834.834 C 3547.22 835.834 3544.22 840.834 3544.22 845.834 C 3544.22 851.834 3538.22 861.834 3532.22 867.834 C 3522.22 877.834 3523.22 883.834 3536.22 898.834 C 3551.22 915.834 3550.22 916.834 3523.22 917.834 C 3507.22 917.834 3500.22 920.834 3507.22 923.834 C 3528.22 931.834 3520.22 956.834 3497.22 956.834 C 3478.22 956.834 3477.22 958.834 3489.22 966.834 C 3500.22 973.834 3501.22 976.834 3491.22 976.834 C 3482.22 976.834 3480.22 983.834 3484.22 996.834 C 3488.22 1008.83 3486.22 1016.83 3479.22 1016.83 C 3472.22 1016.83 3465.22 1007.83 3462.22 996.834 C 3459.22 985.834 3450.22 976.834 3442.22 976.834 C 3431.22 976.834 3431.22 972.834 3439.22 955.834 C 3448.22 939.834 3447.22 931.834 3434.22 916.834 C 3421.22 902.834 3421.22 897.834 3431.22 893.834 C 3439.22 890.834 3436.22 887.834 3425.22 887.834 C 3414.22 886.834 3408.22 883.834 3412.22 880.834 C 3415.22 876.834 3412.22 861.834 3404.22 846.834 C 3396.22 831.834 3393.22 816.834 3396.22 812.834 C 3405.22 803.834 3376.22 805.834 3361.22 815.834 C 3354.22 819.834 3337.22 844.834 3325.22 871.834 L 3302.22 918.834 L 3290.22 886.834 C 3284.22 868.834 3282.22 850.834 3285.22 845.834 C 3288.22 840.834 3283.22 836.834 3274.22 836.834 C 3265.22 836.834 3261.22 831.834 3265.22 825.834 C 3269.22 818.834 3265.22 815.834 3255.22 818.834 C 3245.22 819.834 3238.22 825.834 3239.22 829.834 C 3240.22 834.834 3232.22 844.834 3222.22 852.834 C 3205.22 865.834 3205.22 865.834 3222.22 866.834 C 3239.22 866.834 3239.22 867.834 3224.22 882.834 C 3211.22 896.834 3210.22 901.834 3221.22 907.834 C 3231.22 914.834 3230.22 916.834 3216.22 916.834 C 3206.22 916.834 3201.22 921.834 3204.22 926.834 C 3208.22 932.834 3195.22 936.834 3172.22 936.834 C 3151.22 936.834 3139.22 940.834 3144.22 944.834 C 3162.22 956.834 3159.22 1006.83 3140.22 1007.83 C 3130.22 1007.83 3129.22 1009.83 3137.22 1013.83 C 3155.22 1020.83 3152.22 1034.83 3129.22 1041.83 C 3118.22 1044.83 3109.22 1052.83 3109.22 1058.83 C 3109.22 1068.83 3233.22 1063.83 3439.22 1045.83 Z M 2474.22 1020.83 C 2452.22 1010.83 2449.22 1007.83 2464.22 1006.83 C 2478.22 1006.83 2480.22 1003.83 2472.22 995.834 C 2459.22 982.834 2439.22 991.834 2439.22 1010.83 C 2439.22 1025.83 2480.22 1046.83 2494.22 1038.83 C 2499.22 1035.83 2490.22 1026.83 2474.22 1020.83 Z M 1069.22 966.834 C 1069.22 961.834 1060.22 952.834 1049.22 946.834 C 1016.22 928.834 1026.22 918.834 1072.22 923.834 C 1105.22 927.834 1111.22 925.834 1099.22 916.834 C 1087.22 907.834 1095.22 906.834 1134.22 910.834 L 1184.22 916.834 L 1144.22 900.834 C 1085.22 877.834 1001.22 896.834 947.217 944.834 C 917.217 970.834 927.217 976.834 999.217 976.834 C 1038.22 976.834 1069.22 972.834 1069.22 966.834 Z M 1491.22 871.834 C 1444.22 837.834 1398.22 827.834 1272.22 820.834 C 1164.22 814.834 1134.22 816.834 1091.22 830.834 C 1013.22 856.834 1026.22 868.834 1132.22 865.834 C 1182.22 864.834 1235.22 866.834 1248.22 870.834 C 1264.22 876.834 1269.22 875.834 1265.22 867.834 C 1260.22 859.834 1265.22 859.834 1284.22 866.834 C 1327.22 882.834 1336.22 877.834 1304.22 856.834 C 1275.22 836.834 1275.22 835.834 1299.22 841.834 C 1313.22 843.834 1351.22 850.834 1384.22 855.834 C 1417.22 860.834 1455.22 869.834 1469.22 875.834 C 1506.22 890.834 1516.22 888.834 1491.22 871.834 Z M 1504.22 826.834 C 1493.22 821.834 1475.22 817.834 1464.22 817.834 L 1444.22 817.834 L 1464.22 826.834 C 1475.22 831.834 1493.22 835.834 1504.22 835.834 L 1524.22 835.834 L 1504.22 826.834 Z M 1432.22 809.834 C 1425.22 807.834 1413.22 807.834 1407.22 809.834 C 1400.22 812.834 1405.22 814.834 1419.22 814.834 C 1433.22 814.834 1438.22 812.834 1432.22 809.834 Z M 1386.22 800.834 C 1383.22 797.834 1374.22 796.834 1367.22 799.834 C 1359.22 802.834 1362.22 805.834 1373.22 805.834 C 1384.22 806.834 1390.22 803.834 1386.22 800.834 Z M 2134.22 791.834 C 2107.22 778.834 2114.22 777.834 2209.22 781.834 C 2267.22 784.834 2384.22 787.834 2469.22 789.834 C 2602.22 793.834 2612.22 792.834 2539.22 784.834 C 2492.22 779.834 2411.22 766.834 2359.22 755.834 C 2307.22 743.834 2203.22 728.834 2129.22 721.834 C 2055.22 713.834 1940.22 694.834 1874.22 678.834 C 1753.22 648.834 1753.22 648.834 1674.22 664.834 L 1594.22 680.834 L 1662.22 709.834 C 1699.22 726.834 1729.22 745.834 1729.22 752.834 C 1729.22 762.834 1713.22 759.834 1672.22 740.834 C 1625.22 718.834 1600.22 714.834 1539.22 715.834 C 1498.22 716.834 1439.22 710.834 1409.22 701.834 C 1308.22 674.834 1302.22 674.834 1344.22 697.834 C 1366.22 709.834 1421.22 732.834 1468.22 747.834 C 1535.22 770.834 1563.22 775.834 1603.22 770.834 C 1639.22 766.834 1666.22 769.834 1693.22 780.834 C 1716.22 790.834 1760.22 796.834 1803.22 796.834 L 1874.22 796.834 L 1822.22 761.834 C 1745.22 709.834 1748.22 700.834 1828.22 741.834 C 1895.22 774.834 1915.22 776.834 1887.22 747.834 C 1880.22 740.834 1906.22 750.834 1944.22 768.834 C 2002.22 795.834 2027.22 801.834 2089.22 803.834 C 2160.22 805.834 2162.22 804.834 2134.22 791.834 Z M 1336.22 790.834 C 1333.22 787.834 1324.22 786.834 1317.22 789.834 C 1309.22 792.834 1312.22 795.834 1323.22 795.834 C 1334.22 796.834 1340.22 793.834 1336.22 790.834 Z M 1394.22 757.834 C 1379.22 745.834 1319.22 726.834 1295.22 727.834 C 1283.22 727.834 1301.22 736.834 1334.22 746.834 C 1407.22 768.834 1405.22 768.834 1394.22 757.834 Z M 1127.22 749.834 C 1117.22 747.834 1099.22 747.834 1087.22 749.834 C 1074.22 751.834 1082.22 753.834 1104.22 753.834 C 1126.22 754.834 1136.22 752.834 1127.22 749.834 Z M 2009.22 661.834 C 1940.22 643.834 1925.22 644.834 1964.22 661.834 C 1981.22 669.834 2010.22 675.834 2029.22 675.834 C 2060.22 674.834 2057.22 673.834 2009.22 661.834 Z" style="fill: rgb(86, 85, 73);"/><path d="M2411 2770 c0 -3 10 -45 24 -95 23 -88 23 -89 24 -40 0 34 -8 64 -24 95 -13 25 -24 43 -24 40z" style="fill: rgb(86, 85, 73);"/><path d="M2756 1728 c11 -17 86 -68 101 -68 24 0 5 17 -52 48 -30 17 -52 26 -49 20z" style="fill: rgb(86, 85, 73);"/><path d="M4060 1865 c-14 -8 -20 -14 -15 -14 6 0 21 6 35 14 14 8 21 14 15 14 -5 0 -21 -6 -35 -14z" style="fill: rgb(86, 85, 73);"/><path d="M3580 1830 c35 -31 152 -84 205 -94 l30 -6 -30 12 c-16 7 -77 36 -135 65 -91 46 -100 49 -70 23z" style="fill: rgb(86, 85, 73);"/><path d="M 3678.05 913 C 3690.18 911 3708.33 911 3718.41 913 C 3727.49 916 3717.41 918 3695.2 917 C 3673.03 917 3664.94 915 3678.05 913 Z" style="fill: rgb(86, 85, 73);"/></g></svg>