<?xml version="1.0" encoding="utf-8"?>
<svg xmlns="http://www.w3.org/2000/svg" viewBox="1.0581 1.1111 451.2831 452.2" width="510.059pt" height="508.849pt" preserveAspectRatio="none"><g transform="matrix(0.10000000149011612, 0, 0, -0.10000000149011612, -29.289649963378906, 483.11114501953125)" fill="#000000" stroke="none" id="object-0"><path d="M2166 4798 c-20 -31 -98 -265 -138 -415 l-34 -122 -135 -68 -135 -68 -235 122 c-129 68 -244 122 -256 120 -12 -1 -131 -102 -277 -235 -204 -186 -256 -238 -256 -258 0 -26 121 -274 203 -417 l44 -78 -43 -77 c-25 -42 -61 -116 -80 -164 -32 -76 -41 -89 -68 -97 -240 -75 -416 -133 -420 -139 -3 -4 -12 -166 -21 -360 -13 -268 -15 -356 -6 -366 14 -17 177 -76 332 -120 l112 -33 32 -94 c18 -52 51 -134 73 -182 l42 -89 -61 -111 c-81 -148 -139 -274 -139 -303 0 -16 65 -81 256 -256 141 -128 264 -234 274 -236 10 -2 101 40 204 93 l186 97 108 -45 c59 -25 146 -57 195 -72 l87 -27 16 -57 c36 -132 128 -404 143 -423 l17 -20 354 17 c195 9 359 20 363 24 5 5 42 116 84 247 41 131 79 244 84 250 5 6 37 22 72 34 34 12 92 38 129 56 37 19 72 34 78 34 6 0 52 -24 103 -54 143 -84 392 -206 420 -206 20 0 71 51 259 256 128 141 234 265 236 275 2 10 -53 127 -122 259 -69 133 -126 245 -126 250 0 5 19 48 43 97 24 48 49 102 56 120 12 28 20 33 94 53 235 62 471 140 495 164 12 12 11 71 -3 367 -9 195 -19 357 -21 361 -3 4 -98 37 -212 73 -114 36 -215 69 -225 73 -14 6 -27 38 -48 120 -16 62 -49 163 -74 224 l-44 112 95 183 c52 101 94 192 92 203 -2 10 -108 134 -236 274 -175 192 -239 256 -256 256 -27 0 -152 -57 -286 -129 l-94 -52 -86 40 c-97 44 -222 86 -316 103 -58 11 -65 15 -73 43 -86 273 -115 357 -124 360 -12 4 -616 35 -682 35 -25 0 -39 -6 -49 -22z m484 -74 c85 -3 165 -7 177 -10 19 -4 31 -30 83 -194 52 -163 64 -190 83 -194 178 -38 329 -86 436 -141 28 -14 56 -25 64 -25 7 0 92 40 188 90 96 49 177 90 180 90 5 0 347 -371 400 -434 l25 -31 -93 -179 c-51 -98 -93 -185 -93 -193 0 -8 16 -51 35 -95 41 -92 100 -280 110 -350 4 -26 13 -53 21 -59 8 -6 109 -42 225 -79 117 -37 215 -74 220 -82 10 -18 14 -261 5 -277 -6 -9 -16 -5 -37 15 -23 22 -32 25 -41 16 -9 -9 -6 -18 15 -40 l27 -28 -40 -39 c-22 -21 -40 -45 -40 -51 0 -30 25 -23 65 16 24 23 48 39 54 36 16 -10 14 -96 -2 -96 -8 0 -24 -11 -37 -25 l-24 -25 -53 52 -53 52 -43 -42 c-23 -23 -50 -42 -60 -42 -10 0 -17 -8 -17 -18 0 -10 -20 -38 -45 -62 l-45 -44 -23 22 c-44 41 -66 19 -25 -25 l22 -23 -63 -64 c-35 -35 -61 -68 -57 -74 3 -5 0 -12 -8 -15 -7 -3 -23 -31 -36 -64 -13 -32 -45 -102 -72 -156 l-49 -98 83 -159 c65 -126 80 -162 70 -172 -9 -9 -20 -4 -50 25 -21 20 -43 37 -50 37 -23 0 -12 -34 23 -70 l35 -36 -34 -33 c-33 -32 -34 -33 -60 -16 -24 16 -26 16 -32 0 -5 -12 14 -37 67 -91 40 -41 77 -74 82 -74 4 0 10 7 14 16 4 10 -9 30 -36 58 l-41 42 34 33 35 34 32 -27 c22 -19 35 -24 43 -17 9 7 17 2 28 -17 l17 -28 -111 -122 c-100 -110 -113 -121 -127 -107 -14 13 -10 21 39 70 43 43 52 57 42 67 -10 10 -24 1 -67 -42 -53 -53 -55 -53 -75 -35 -19 17 -19 20 -4 36 9 10 14 26 10 35 -6 15 -8 15 -32 -1 -25 -16 -27 -16 -55 11 -27 26 -28 29 -12 46 13 14 14 21 5 30 -10 10 -34 -9 -107 -82 -90 -90 -95 -93 -113 -77 -10 9 -24 17 -30 17 -17 0 -15 -30 3 -50 13 -14 10 -21 -35 -65 l-49 -48 -107 62 -107 63 -106 -50 c-58 -28 -135 -60 -169 -73 -72 -25 -84 -39 -108 -126 -10 -35 -20 -63 -24 -63 -4 0 -15 9 -25 20 -18 20 -18 21 10 50 25 26 26 30 11 36 -11 4 -26 -1 -40 -15 -12 -11 -28 -21 -34 -21 -7 0 -15 -8 -19 -17 -3 -10 -13 -26 -21 -35 -8 -10 -12 -25 -8 -34 6 -15 9 -14 32 7 l25 23 29 -30 c28 -27 29 -31 18 -66 -6 -21 -22 -47 -35 -60 l-23 -21 -25 23 c-13 12 -23 32 -22 44 1 16 -3 20 -19 19 -12 -1 -30 7 -39 17 -10 11 -24 20 -32 20 -19 0 -16 -31 7 -55 l20 -21 -63 -63 c-56 -55 -65 -60 -77 -46 -11 13 -9 20 13 43 29 30 36 62 14 62 -7 0 -26 -14 -42 -30 l-29 -30 -32 31 c-51 50 -76 18 -27 -33 l27 -29 -62 -61 -62 -62 -35 34 c-19 19 -35 39 -35 44 0 6 46 57 102 113 84 84 99 103 84 109 -14 5 -42 -17 -120 -95 l-101 -101 -33 32 c-27 28 -34 30 -42 18 -7 -11 -1 -23 20 -45 l30 -31 -39 -38 -39 -38 -45 138 c-25 77 -55 175 -67 219 -26 94 -31 101 -73 111 -64 13 -214 67 -308 110 -55 25 -104 42 -113 38 -10 -4 -16 -1 -16 8 0 17 -43 59 -90 87 -69 41 -119 24 -222 -77 l-67 -66 -24 22 c-44 41 -66 19 -25 -25 21 -22 21 -24 5 -40 -16 -16 -19 -15 -54 18 -21 19 -92 84 -158 144 -66 60 -133 121 -148 135 l-29 27 70 139 c39 77 84 163 101 192 17 29 31 60 31 70 0 9 -19 55 -42 102 -23 47 -61 139 -83 205 l-41 120 -45 13 c-24 8 -122 38 -218 69 l-174 55 7 136 c3 75 9 207 12 292 3 85 7 165 10 177 4 19 33 32 223 93 213 68 219 71 231 103 38 95 78 181 121 258 27 48 49 92 49 99 0 7 -29 62 -64 124 -55 96 -186 349 -186 359 0 4 388 359 434 398 l31 25 238 -124 239 -124 151 76 c84 42 157 76 164 76 18 0 20 7 63 162 21 79 57 197 80 263 22 66 40 122 40 124 0 2 62 1 138 -3 75 -3 207 -9 292 -12z m1950 -2438 l-30 -31 -37 37 -37 38 29 30 29 30 38 -37 38 -37 -30 -30z m140 4 l0 -69 -145 -47 -146 -47 -39 38 -40 39 47 48 47 48 38 -37 37 -36 -19 -25 c-11 -13 -17 -28 -14 -33 8 -14 30 -11 44 5 6 8 21 16 33 18 12 2 21 10 19 17 -2 11 123 151 136 151 1 0 2 -31 2 -70z m-340 -171 c0 -3 -37 -16 -81 -27 l-82 -20 54 54 53 54 28 -27 c15 -15 28 -30 28 -34z m-170 -769 c13 -25 13 -25 -8 -6 -12 10 -19 23 -16 28 7 11 7 11 24 -22z m-380 -315 l-65 -65 -30 30 -30 30 65 65 65 65 30 -30 30 -30 -65 -65z m-2344 32 l36 -33 -59 -32 -60 -31 -39 40 -39 40 30 25 c43 35 87 32 131 -9z m2414 -102 l-64 -65 -20 20 -20 20 64 65 64 65 20 -20 20 -20 -64 -65z m-2561 21 l33 -34 -42 -22 c-34 -17 -41 -25 -36 -43 4 -16 -5 -11 -37 21 l-41 42 34 35 c19 19 39 35 45 35 6 0 26 -15 44 -34z m2378 -64 c-9 -10 -17 -24 -17 -30 0 -17 35 -15 50 3 12 14 18 11 55 -25 22 -22 46 -40 52 -40 18 0 26 19 14 34 -8 9 6 28 54 76 60 60 66 63 81 48 16 -15 10 -23 -72 -112 -48 -53 -89 -96 -91 -96 -5 0 -247 121 -252 126 -3 3 15 25 39 49 l44 45 30 -29 c28 -29 29 -31 13 -49z m-2488 -36 c32 -33 32 -34 11 -41 -15 -5 -29 0 -48 17 -15 12 -29 24 -31 25 -5 3 20 33 28 33 4 0 22 -15 40 -34z m1529 -403 l-62 -63 -28 27 -28 27 62 63 62 63 28 -27 28 -27 -62 -63z m87 -23 c-9 -24 -21 -48 -28 -52 -15 -10 -77 -10 -77 -1 0 15 105 112 112 105 5 -5 1 -28 -7 -52z m-296 -29 c-27 -31 -41 -39 -69 -40 l-34 -1 54 55 c47 48 56 53 69 41 12 -13 10 -20 -20 -55z m-217 -8 c15 -15 28 -30 28 -35 0 -4 -32 -8 -72 -8 l-72 0 34 35 c19 19 38 35 44 35 5 0 23 -12 38 -27z m303 -3 c18 -20 17 -20 -25 -20 -42 0 -43 0 -25 20 10 11 21 20 25 20 4 0 15 -9 25 -20z" style="fill: rgb(86, 85, 73);"/><path d="M2496 3984 c-672 -104 -1262 -644 -1372 -1254 -20 -113 -20 -330 1 -445 90 -506 459 -922 942 -1064 142 -42 242 -55 413 -55 178 0 274 14 430 61 561 168 988 719 1029 1326 29 422 -116 826 -398 1107 -267 267 -650 386 -1045 324z m191 -106 l43 -42 -30 -31 c-25 -26 -28 -34 -17 -43 11 -9 20 -5 42 18 l29 30 38 -37 c30 -29 41 -34 50 -25 9 9 5 19 -20 45 -18 18 -32 37 -32 42 0 13 62 75 75 75 6 0 32 -22 58 -48 l47 -48 -30 -29 c-32 -30 -39 -55 -17 -55 8 0 24 11 37 25 30 32 37 31 75 -5 22 -21 34 -27 45 -20 12 8 9 15 -18 43 -17 18 -32 37 -32 42 0 14 32 45 48 45 24 0 195 -85 261 -129 353 -240 571 -744 522 -1204 -61 -562 -434 -1044 -941 -1217 -128 -43 -231 -61 -390 -67 -233 -8 -422 30 -619 123 -315 149 -540 400 -654 731 -35 100 -35 101 -16 119 18 17 20 16 42 -4 26 -24 57 -29 57 -9 0 8 -11 24 -25 37 l-26 24 67 67 c60 61 73 89 41 89 -6 0 -40 -28 -74 -62 l-63 -62 -35 34 c-50 48 -49 92 3 143 38 37 38 37 57 17 10 -11 24 -20 32 -20 18 0 16 30 -4 52 -15 17 -13 22 46 83 57 60 69 85 38 85 -7 0 -39 -27 -72 -60 l-59 -60 -39 38 c-35 34 -37 40 -31 77 4 27 18 52 42 77 l36 38 31 -30 c17 -17 36 -30 43 -30 21 0 13 25 -18 55 l-30 29 67 68 c56 57 71 66 91 61 23 -5 24 -3 19 19 -5 18 -1 30 13 43 43 39 16 67 -28 30 l-29 -25 -19 21 c-18 20 -17 21 54 92 l71 71 29 -27 c51 -49 74 -26 25 25 l-27 28 59 60 c33 33 64 60 70 60 6 0 29 -18 50 -40 39 -40 65 -51 65 -28 0 7 -19 32 -42 55 -38 39 -41 46 -30 63 10 17 10 21 -3 26 -8 4 -21 1 -28 -5 -10 -8 -20 -3 -42 19 l-29 30 29 30 c16 16 54 50 85 75 l57 44 24 -25 c13 -14 23 -35 21 -46 -3 -15 1 -19 17 -16 14 2 38 -15 76 -52 43 -42 57 -52 67 -42 10 10 1 23 -40 65 -29 29 -52 57 -52 63 0 5 26 35 58 67 l58 57 59 -60 c60 -61 99 -78 93 -40 -2 13 17 40 57 80 l59 60 47 -46 c45 -44 78 -52 64 -16 -4 10 13 35 52 74 l57 58 42 -41 c39 -38 64 -44 64 -16 0 6 -17 28 -37 49 l-37 38 24 25 c18 19 21 28 12 37 -9 9 -18 6 -37 -12 -24 -23 -25 -23 -45 -5 -29 26 -25 33 18 38 107 11 114 9 159 -35z m103 17 c-13 -14 -29 -25 -35 -25 -6 0 -22 11 -35 25 l-23 25 58 0 58 0 -23 -25z m224 -36 c-17 -19 -18 -19 -41 3 -33 31 -29 37 17 26 39 -10 40 -11 24 -29z m-542 -3 l26 -32 -58 -60 -59 -61 -25 26 -26 25 35 36 c25 26 32 39 25 50 -8 12 -15 9 -43 -18 -18 -17 -38 -32 -43 -32 -13 0 -59 48 -53 54 9 9 144 45 169 45 16 0 35 -12 52 -33z m-235 -58 c18 -18 33 -37 33 -43 0 -6 -26 -36 -58 -68 l-58 -57 -44 45 -44 45 34 36 c31 32 87 74 100 74 2 0 19 -14 37 -32z m-263 -118 c-43 -44 -83 -80 -89 -80 -7 0 -20 9 -29 19 -17 19 -16 20 21 44 63 42 157 96 166 97 4 0 -27 -36 -69 -80z m-331 -268 l27 -28 -65 -64 -65 -64 -25 24 c-14 13 -25 28 -25 33 0 13 103 126 116 127 5 0 22 -13 37 -28z m-153 -157 l24 -26 -69 -69 c-38 -39 -73 -70 -78 -70 -25 0 -13 38 34 110 29 44 56 80 59 80 4 0 17 -11 30 -25z m-150 -205 c0 -13 7 -20 18 -20 11 0 26 -8 35 -18 16 -17 12 -22 -52 -86 -99 -98 -118 -75 -55 64 36 79 54 99 54 60z m-109 -233 c-10 -9 -11 -8 -5 6 3 10 9 15 12 12 3 -3 0 -11 -7 -18z m-16 -257 c18 -20 18 -21 -8 -48 l-27 -27 0 48 c0 52 8 57 35 27z m4 -284 c7 -8 8 -17 3 -20 -6 -3 -12 3 -15 14 -6 24 -4 25 12 6z" style="fill: rgb(86, 85, 73);"/><path d="M2517 2500 c-180 -269 -327 -496 -327 -503 0 -19 21 -37 42 -37 13 0 115 145 340 483 338 506 356 538 297 545 -23 3 -52 -37 -352 -488z" style="fill: rgb(86, 85, 73);"/><path d="M1869 2744 c-204 -175 -249 -218 -249 -234 0 -11 256 -322 279 -338 37 -26 73 14 48 52 -8 12 -62 79 -121 150 -58 71 -106 131 -105 135 0 3 90 83 199 176 164 140 199 175 200 196 0 24 -15 39 -39 39 -4 0 -99 -79 -212 -176z" style="fill: rgb(86, 85, 73);"/><path d="M2977 2824 c-23 -23 3 -60 153 -221 88 -94 160 -173 160 -175 0 -3 -76 -60 -170 -129 -147 -107 -170 -128 -170 -151 0 -47 32 -45 103 5 242 175 332 246 335 264 2 14 -49 76 -178 214 -170 183 -210 216 -233 193z" style="fill: rgb(86, 85, 73);"/></g></svg>