<?xml version="1.0" encoding="utf-8"?>
<svg xmlns="http://www.w3.org/2000/svg" viewBox="1 120.6851 482 367.3149" width="482pt" height="367.315pt" preserveAspectRatio="none"><path d="M429 3676 c-51 -17 -79 -78 -79 -177 0 -85 26 -249 64 -404 13 -55 23 -102 21 -106 -3 -3 -58 -9 -125 -12 -193 -11 -230 -17 -230 -38 0 -10 4 -20 9 -24 20 -12 422 -25 442 -15 25 14 25 32 -11 243 -34 203 -49 377 -32 377 30 0 231 -282 413 -580 64 -104 65 -105 106 -108 54 -4 66 15 83 123 15 96 46 205 66 224 19 20 42 -3 100 -96 41 -65 150 -293 168 -350 6 -18 -21 -72 -122 -250 -290 -510 -596 -1071 -862 -1581 -176 -339 -430 -855 -430 -876 0 -9 6 -16 13 -16 12 0 302 430 527 780 305 474 669 1072 1014 1665 109 187 205 351 213 364 15 23 16 21 82 -90 37 -63 195 -326 350 -586 l282 -472 -95 -140 c-128 -188 -130 -196 -156 -576 -11 -165 -22 -310 -25 -322 -3 -12 -14 -27 -25 -33 -11 -6 -133 -39 -271 -74 -201 -51 -256 -69 -274 -88 -32 -34 -129 -258 -116 -271 20 -20 37 3 90 123 36 82 61 125 75 131 12 5 131 36 266 70 237 58 270 71 292 112 5 10 20 166 33 346 18 253 28 338 42 376 20 51 177 295 191 295 4 0 27 -33 51 -73 399 -651 969 -1537 989 -1537 5 0 12 3 15 7 12 11 -414 840 -767 1495 l-164 303 70 103 c67 98 99 132 124 132 6 0 47 -28 90 -62 68 -55 83 -63 121 -63 69 0 84 23 150 235 48 150 63 187 82 196 18 10 52 4 184 -30 l162 -41 133 -220 c299 -493 585 -941 890 -1392 140 -207 182 -259 182 -222 0 43 -434 905 -743 1474 -361 666 -910 1628 -960 1683 -11 12 -38 27 -58 33 -31 10 -43 9 -75 -7 -33 -16 -49 -38 -112 -154 -123 -223 -364 -702 -458 -908 -48 -106 -91 -189 -95 -185 -4 5 -66 112 -137 238 -149 266 -282 500 -303 533 -34 55 -128 66 -176 20 -13 -12 -71 -104 -129 -205 -105 -182 -124 -209 -124 -178 0 34 -84 270 -126 354 -55 112 -106 161 -165 161 -53 0 -90 -20 -120 -67 -24 -36 -33 -57 -59 -127 -10 -28 -11 -26 -88 96 -116 185 -197 294 -281 379 -85 85 -130 105 -192 85z m2689 -521 c38 -66 75 -131 82 -145 7 -14 -38 24 -99 85 -61 60 -111 113 -111 117 0 16 45 77 52 70 3 -4 37 -61 76 -127z m24 -172 l177 -178 135 -230 c74 -126 133 -231 132 -233 -14 -13 -95 61 -384 350 l-333 335 42 66 c24 37 45 67 48 67 4 0 86 -80 183 -177z m295 -600 c-2 -1 -27 4 -57 12 -75 20 -103 19 -135 -6 l-27 -22 -236 236 -236 236 48 72 48 72 299 -299 c164 -164 297 -299 296 -301z m-263 -147 c-15 -47 -31 -86 -34 -86 -3 0 -120 114 -259 254 l-255 255 48 72 48 72 240 -240 240 -240 -28 -87z m-306 121 l262 -262 -16 -50 c-22 -66 -30 -75 -67 -75 -27 0 -63 32 -288 256 l-257 257 46 68 c26 37 49 68 52 69 3 0 123 -118 268 -263z m-216 -84 c93 -92 168 -171 168 -174 0 -4 -11 -10 -25 -13 -15 -4 -40 -26 -57 -51 -18 -25 -34 -45 -38 -45 -3 0 -77 72 -164 159 -112 113 -156 163 -150 172 18 31 87 119 93 119 3 0 81 -75 173 -167z m-1 -367 c-13 -20 -26 -36 -31 -36 -6 0 -127 210 -158 275 -2 6 44 -38 103 -96 l108 -107 -22 -36z" style="fill: rgb(86, 85, 73);" id="object-0" transform="matrix(0.10000000149011612, 0, 0, -0.10000000149011612, 0, 489)"/></svg>